<svg width="180" height="180" viewBox="0 0 180 180" fill="none" xmlns="http://www.w3.org/2000/svg">
<g clip-path="url(#clip0_161_651)">
<path d="M153.638 153.64C188.785 118.492 188.785 61.5076 153.638 26.3604C118.49 -8.78679 61.5055 -8.78679 26.3583 26.3604C-8.78889 61.5076 -8.78889 118.492 26.3583 153.64C61.5055 188.787 118.49 188.787 153.638 153.64Z" fill="#B5BED1"/>
<path d="M113.748 63.3216L137.144 66.6909C143.775 67.6455 146.435 75.793 141.642 80.4793L124.734 96.9938C122.83 98.852 121.962 101.532 122.416 104.156L126.439 127.445C127.577 134.051 120.655 139.094 114.718 135.985L93.7879 125.015C91.4294 123.779 88.6166 123.779 86.2632 125.025L65.3585 136.047C59.4317 139.171 52.489 134.142 53.6171 127.537L57.5837 104.238C58.0278 101.614 57.16 98.9388 55.2507 97.0806L38.3075 80.6018C33.5037 75.9308 36.143 67.7731 42.7743 66.8032L66.16 63.3778C68.7941 62.9949 71.0658 61.3358 72.2451 58.9467L82.6795 37.7408C85.6404 31.7272 94.2116 31.717 97.1827 37.7255L107.668 58.9059C108.847 61.2899 111.129 62.9439 113.763 63.3216H113.748Z" fill="white"/>
<path d="M113.748 63.3216L113.36 66.017L136.756 69.3862C137.501 69.4934 138.134 69.7231 138.691 70.0448C139.523 70.5246 140.187 71.2138 140.651 72.0357C141.116 72.8576 141.366 73.802 141.361 74.7413C141.361 75.4151 141.233 76.0839 140.973 76.722C140.712 77.3601 140.314 77.9676 139.737 78.5343L122.83 95.0487C120.732 97.1009 119.573 99.8933 119.573 102.778C119.573 103.39 119.624 104.003 119.731 104.62L123.754 127.909C123.81 128.246 123.841 128.568 123.841 128.879C123.841 129.635 123.682 130.329 123.407 130.962C122.993 131.911 122.284 132.733 121.411 133.305C120.538 133.882 119.512 134.204 118.47 134.204C117.659 134.204 116.832 134.02 115.979 133.571L95.0488 122.6C93.4764 121.778 91.751 121.365 90.0306 121.365C88.3 121.365 86.5644 121.778 84.992 122.61L64.0873 133.632C63.2297 134.081 62.3976 134.265 61.5859 134.27C60.1974 134.27 58.8292 133.693 57.8287 132.723C57.3284 132.238 56.9251 131.666 56.6494 131.028C56.3738 130.395 56.2155 129.701 56.2155 128.94C56.2155 128.634 56.241 128.318 56.2972 127.986L60.2637 104.682C60.3658 104.074 60.4169 103.472 60.4169 102.869C60.4169 99.975 59.253 97.1724 57.1446 95.1202L40.2013 78.6415C39.6194 78.0748 39.2212 77.4673 38.9557 76.8292C38.6903 76.1911 38.5678 75.5172 38.5678 74.8434C38.5678 73.5927 39.0119 72.3318 39.8032 71.3669C40.1962 70.882 40.6761 70.4685 41.2325 70.152C41.789 69.8303 42.422 69.6006 43.1673 69.4934L66.553 66.068C70.0703 65.5524 73.1129 63.3369 74.6852 60.1463L85.1197 38.9404C85.6301 37.9041 86.3397 37.1894 87.1667 36.6942C87.9937 36.199 88.9586 35.9438 89.9336 35.9438C90.9035 35.9438 91.8684 36.199 92.6954 36.6891C93.5224 37.1843 94.2269 37.899 94.7425 38.9302L105.228 60.1105C106.805 63.296 109.853 65.5065 113.37 66.0119L113.758 63.3164L114.146 60.621C112.4 60.3709 110.884 59.2733 110.103 57.6908L99.6177 36.5104C98.6477 34.5399 97.1673 33.0085 95.4674 32.0028C93.7623 30.992 91.8429 30.4968 89.9336 30.4968C88.0193 30.4968 86.0947 30.9971 84.3896 32.0079C82.6846 33.0187 81.2042 34.5552 80.2393 36.5309L69.8049 57.7368C69.0238 59.3193 67.5178 60.422 65.7719 60.6772L42.3862 64.1026C40.9773 64.3068 39.6704 64.7714 38.5269 65.4299C36.8066 66.4202 35.4537 67.8445 34.54 69.4781C33.6262 71.1117 33.1361 72.9546 33.1361 74.8434C33.1361 76.2064 33.3914 77.5898 33.9376 78.9069C34.4787 80.224 35.3108 81.4747 36.4186 82.5467L53.3619 99.0255C54.4084 100.041 54.9852 101.435 54.9852 102.875C54.9852 103.176 54.9597 103.477 54.9087 103.778L50.9166 127.21L50.9421 127.072C50.8349 127.7 50.7839 128.328 50.7839 128.945C50.7839 130.467 51.1055 131.917 51.6772 133.218C52.5349 135.174 53.9438 136.787 55.6642 137.92C57.3845 139.053 59.4367 139.712 61.6012 139.717C63.2807 139.717 65.0164 139.309 66.6449 138.451L87.5547 127.429C88.3358 127.016 89.1934 126.812 90.0561 126.812C90.9138 126.812 91.7663 127.016 92.5473 127.424L113.478 138.395C115.096 139.247 116.826 139.651 118.496 139.645C121.38 139.645 124.065 138.476 126.041 136.562C127.031 135.602 127.848 134.449 128.42 133.147C128.991 131.845 129.313 130.395 129.313 128.874C129.313 128.251 129.257 127.618 129.15 126.98L125.127 103.691C125.076 103.385 125.05 103.084 125.05 102.778C125.05 101.348 125.622 99.9597 126.669 98.9387L143.576 82.4242C144.679 81.3471 145.501 80.1066 146.042 78.7895C146.583 77.4775 146.838 76.0941 146.838 74.7362C146.838 72.2195 145.97 69.7691 144.368 67.8088C143.566 66.8286 142.581 65.9761 141.432 65.3176C140.284 64.659 138.977 64.1996 137.563 63.9954L114.167 60.6262L113.779 63.3216H113.748Z" fill="#172149"/>
</g>
<defs>
<clipPath id="clip0_161_651">
<rect width="180" height="180" fill="white"/>
</clipPath>
</defs>
</svg>
