<svg width="180" height="180" viewBox="0 0 180 180" fill="none" xmlns="http://www.w3.org/2000/svg">
<g clip-path="url(#clip0_161_658)">
<path d="M153.637 153.64C188.785 118.492 188.785 61.5076 153.637 26.3604C118.49 -8.78679 61.5054 -8.78679 26.3582 26.3604C-8.78895 61.5076 -8.78895 118.492 26.3582 153.64C61.5054 188.787 118.49 188.787 153.637 153.64Z" fill="#B5BED1"/>
<path fill-rule="evenodd" clip-rule="evenodd" d="M91.2711 39.7958C64.6335 39.7958 43.0397 61.3897 43.0397 88.0272C43.0397 97.1855 45.5921 105.746 50.0232 113.036L43.0397 135.069L62.076 126.421C70.1826 132.593 80.2955 136.259 91.266 136.259C117.904 136.259 139.497 114.665 139.497 88.0272C139.497 61.3897 117.904 39.7958 91.266 39.7958H91.2711Z" fill="white"/>
<path d="M91.2711 39.7959V37.075C77.2121 37.075 64.4549 42.7823 55.2456 51.9967C46.0312 61.206 40.3188 73.9632 40.3239 88.0222C40.3239 97.6858 43.0193 106.742 47.7005 114.445L50.0284 113.031L47.4351 112.209L38.6035 140.067L63.2093 128.887L62.0862 126.411L60.4373 128.576C68.9932 135.095 79.6931 138.975 91.2762 138.969C105.335 138.969 118.092 133.262 127.302 124.048C136.516 114.838 142.229 102.081 142.223 88.0222C142.223 73.9632 136.516 61.206 127.302 51.9967C118.092 42.7823 105.335 37.0698 91.2762 37.075V42.5168C103.85 42.5168 115.213 47.6064 123.458 55.8458C131.697 64.0903 136.787 75.4487 136.787 88.0273C136.787 100.601 131.697 111.964 123.458 120.209C115.213 128.448 103.855 133.538 91.2762 133.538C80.9132 133.538 71.3874 130.082 63.7351 124.257L62.4436 123.272L47.4912 130.066L52.9994 112.684L52.3562 111.627C48.1753 104.746 45.7708 96.6802 45.7708 88.0324C45.7708 75.459 50.8605 64.0954 59.0998 55.8509C67.3443 47.6115 78.7028 42.5219 91.2813 42.5219V39.801L91.2711 39.7959Z" fill="#172149"/>
<path d="M91.2712 39.7957V37.4985C77.3245 37.4985 64.6796 43.1599 55.5417 52.2977C46.4039 61.4356 40.7425 74.0805 40.7425 88.0272C40.7425 97.6142 43.4175 106.589 48.0579 114.231L50.0233 113.036L47.8333 112.342L39.2927 139.291L63.0307 128.509L62.0812 126.416L60.6875 128.244C69.1719 134.707 79.7851 138.556 91.2712 138.551C105.218 138.551 117.863 132.889 127.001 123.751C136.138 114.614 141.8 101.969 141.8 88.022C141.8 74.0754 136.138 61.4304 127.001 52.2926C117.863 43.1548 105.218 37.4934 91.2712 37.4934V42.0878C103.962 42.0878 115.433 47.2234 123.749 55.5394C132.065 63.8604 137.2 75.3261 137.2 88.0169C137.2 100.708 132.065 112.179 123.749 120.495C115.428 128.81 103.962 133.946 91.2712 133.946C80.8112 133.946 71.1935 130.454 63.4697 124.578L62.3772 123.746L46.7919 130.827L52.5298 112.72L51.9887 111.826C47.7669 104.879 45.3421 96.7362 45.3421 88.0118C45.3421 75.321 50.4776 63.8502 58.7936 55.5342C67.1146 47.2183 78.5803 42.0827 91.2712 42.0827V39.7855V39.7957Z" fill="#172149"/>
</g>
<defs>
<clipPath id="clip0_161_658">
<rect width="180" height="180" fill="white"/>
</clipPath>
</defs>
</svg>
