<svg width="180" height="180" viewBox="0 0 180 180" fill="none" xmlns="http://www.w3.org/2000/svg">
<g clip-path="url(#clip0_161_666)">
<path d="M153.637 153.64C188.785 118.492 188.785 61.5076 153.637 26.3604C118.49 -8.78679 61.5054 -8.78679 26.3582 26.3604C-8.78895 61.5076 -8.78895 118.492 26.3582 153.64C61.5054 188.787 118.49 188.787 153.637 153.64Z" fill="#B5BED1"/>
<path d="M145.618 119.384H142.989C142.989 120.272 142.749 121.155 142.198 122.131C141.713 122.983 140.978 123.892 139.972 124.805C138.216 126.414 135.648 128.027 132.417 129.482C127.572 131.677 121.252 133.53 113.983 134.816C106.714 136.108 98.4843 136.838 89.7804 136.838C82.1996 136.838 74.9812 136.286 68.4418 135.291C63.536 134.546 59.013 133.55 55.0107 132.361C49.0073 130.584 44.173 128.343 41.0232 125.985C39.4458 124.811 38.2972 123.611 37.5876 122.498C37.2302 121.942 36.9801 121.406 36.8167 120.89C36.6534 120.374 36.5768 119.879 36.5768 119.379C36.5768 118.491 36.8167 117.608 37.3681 116.632C37.853 115.78 38.5882 114.871 39.5938 113.958C41.3499 112.349 43.9177 110.736 47.1491 109.281C51.9937 107.086 58.3136 105.233 65.583 103.947C72.8525 102.655 81.0816 101.925 89.7906 101.925C97.3715 101.925 104.59 102.477 111.129 103.472C116.035 104.217 120.558 105.213 124.56 106.402C130.564 108.179 135.398 110.42 138.548 112.778C140.125 113.952 141.274 115.152 141.983 116.265C142.341 116.821 142.591 117.357 142.754 117.873C142.918 118.389 142.994 118.884 142.994 119.384H148.252C148.252 117.5 147.711 115.673 146.772 114.034C145.955 112.6 144.847 111.288 143.52 110.073C141.192 107.954 138.175 106.116 134.586 104.488C129.201 102.058 122.513 100.118 114.907 98.7652C107.301 97.4175 98.7855 96.662 89.7855 96.662C81.9495 96.662 74.4758 97.2337 67.6557 98.27C62.5405 99.0511 57.7878 100.087 53.5201 101.359C47.1134 103.268 41.7889 105.657 37.8837 108.562C35.9336 110.022 34.3255 111.619 33.1667 113.421C32.5899 114.32 32.1253 115.275 31.8088 116.275C31.4923 117.276 31.3187 118.317 31.3187 119.379C31.3187 121.263 31.8598 123.09 32.7992 124.729C33.6159 126.163 34.7237 127.475 36.051 128.69C38.3789 130.809 41.3959 132.647 44.9846 134.275C50.3703 136.705 57.0578 138.645 64.6642 139.998C72.2705 141.345 80.7855 142.101 89.7855 142.101C97.6216 142.101 105.095 141.529 111.915 140.493C117.031 139.712 121.783 138.676 126.051 137.404C132.458 135.495 137.782 133.106 141.687 130.201C143.637 128.741 145.246 127.144 146.404 125.342C146.981 124.443 147.446 123.488 147.762 122.488C148.079 121.487 148.252 120.441 148.252 119.384H145.623H145.618Z" fill="#172149"/>
<path d="M87.5548 120.854C89.9337 120.854 92.1339 119.782 93.599 117.898C104.207 104.212 122.008 79.1827 122.008 65.2513C122.008 46.2558 106.55 30.7981 87.5548 30.7981C68.5593 30.7981 53.1016 46.2558 53.1016 65.2513C53.1016 79.1827 70.9025 104.222 81.5258 117.898C82.9807 119.777 85.1759 120.854 87.5548 120.854ZM68.4572 65.2513C68.4572 54.7045 77.0029 46.1537 87.5548 46.1537C98.1067 46.1537 106.652 54.6994 106.652 65.2513C106.652 75.8032 98.1067 84.3489 87.5548 84.3489C77.0029 84.3489 68.4572 75.7879 68.4572 65.2513Z" fill="white"/>
<path d="M87.5547 120.854V123.575C89.1526 123.575 90.7147 123.213 92.1135 122.529C93.5173 121.845 94.7578 120.839 95.7431 119.573C101.088 112.671 108.245 102.926 114.116 93.0579C117.051 88.1214 119.67 83.1594 121.579 78.4526C122.534 76.0993 123.315 73.8123 123.861 71.6069C124.407 69.4016 124.724 67.283 124.729 65.2513C124.729 55.0057 120.553 45.6994 113.83 38.9762C107.107 32.2479 97.8003 28.0771 87.5547 28.0771C77.3091 28.0771 68.0028 32.253 61.2796 38.9762C54.5513 45.6994 50.3806 55.0057 50.3806 65.2513C50.3806 67.283 50.7022 69.4016 51.2485 71.6069C52.2082 75.4612 53.8724 79.5859 55.9552 83.8435C59.0845 90.2195 63.1838 96.8764 67.38 103.084C71.5763 109.292 75.8645 115.045 79.3766 119.568C80.3568 120.829 81.5973 121.839 83.0011 122.524C84.405 123.213 85.962 123.575 87.5599 123.575V118.133C86.7788 118.133 86.0488 117.96 85.3903 117.638C84.7368 117.317 84.1549 116.847 83.6801 116.234C78.4118 109.45 71.3568 99.8321 65.675 90.2808C62.8315 85.5077 60.3352 80.7448 58.5791 76.4107C57.7011 74.2462 57.0068 72.1838 56.5372 70.3001C56.0675 68.4163 55.8327 66.7062 55.8327 65.2564C55.8327 56.5014 59.3857 48.5837 65.139 42.8304C70.8973 37.0771 78.8151 33.5241 87.565 33.5241C96.3199 33.5241 104.238 37.0771 109.991 42.8304C115.744 48.5888 119.297 56.5065 119.297 65.2564C119.297 66.7062 119.062 68.4163 118.593 70.3001C117.776 73.5979 116.26 77.4265 114.279 81.4441C111.318 87.4782 107.336 93.9614 103.232 100.036C99.1276 106.111 94.9058 111.778 91.4549 116.234C90.9751 116.847 90.388 117.317 89.7295 117.638C89.0709 117.96 88.3409 118.133 87.5599 118.133V120.854H87.5547ZM68.4572 65.2513H71.1781C71.1781 60.7181 73.0057 56.6444 75.9717 53.6733C78.9427 50.7073 83.0165 48.8798 87.5496 48.8798C92.0828 48.8798 96.1566 50.7073 99.1276 53.6733C102.094 56.6444 103.921 60.7181 103.921 65.2513C103.921 69.7845 102.094 73.8582 99.1276 76.8293C96.1566 79.7952 92.0828 81.6228 87.5496 81.6228C83.0165 81.6228 78.9427 79.7901 75.9717 76.8242C73.0057 73.8531 71.1781 69.7743 71.1781 65.2513H65.7363C65.7363 71.2649 68.1815 76.7323 72.1225 80.6733C76.0635 84.6194 81.5309 87.0698 87.5496 87.0698C93.5684 87.0698 99.0357 84.6245 102.977 80.6784C106.923 76.7374 109.368 71.2649 109.368 65.2513C109.368 59.2326 106.923 53.7652 102.977 49.8242C99.0357 45.8781 93.5633 43.4328 87.5496 43.4328C81.5309 43.4328 76.0584 45.8781 72.1225 49.8242C68.1764 53.7652 65.7311 59.2377 65.7311 65.2513H68.4521H68.4572Z" fill="#172149"/>
</g>
<defs>
<clipPath id="clip0_161_666">
<rect width="180" height="180" fill="white"/>
</clipPath>
</defs>
</svg>
