<svg width="180" height="180" viewBox="0 0 180 180" fill="none" xmlns="http://www.w3.org/2000/svg">
<g clip-path="url(#clip0_161_673)">
<path d="M153.637 153.64C188.785 118.492 188.785 61.5076 153.637 26.3604C118.49 -8.78679 61.5055 -8.78679 26.3583 26.3604C-8.78892 61.5076 -8.78892 118.492 26.3583 153.64C61.5055 188.787 118.49 188.787 153.637 153.64Z" fill="#B5BED1"/>
<path d="M116.402 87.793L105.217 86.2053C104.768 86.1236 104.503 85.9399 104.319 85.5723L99.2445 75.3675C98.7952 74.3874 97.8151 73.7799 96.6818 73.7799C95.6251 73.7799 94.6449 74.4129 94.1191 75.3675L89.0448 85.5723C88.861 85.9143 88.5139 86.1032 88.1464 86.2053L76.9614 87.8951C75.9047 88.0788 75.0062 88.7935 74.6591 89.8502C74.3171 90.907 74.5774 92.0709 75.3738 92.8622L83.5417 100.846C83.8072 101.112 83.9909 101.479 83.8837 101.826L81.9285 113.011C81.7448 114.068 82.194 115.232 83.0925 115.865C83.6234 116.207 84.1492 116.396 84.7822 116.396C85.2314 116.396 85.6807 116.314 86.1044 116.054L96.1509 110.821C96.4929 110.638 96.8656 110.638 97.2076 110.821L107.254 116.054C108.311 116.503 109.475 116.396 110.373 115.788C111.272 115.181 111.695 114.017 111.537 112.935L109.582 101.75C109.582 101.408 109.664 101.035 109.924 100.77L118.092 92.7856C118.883 91.9943 119.149 90.8304 118.807 89.7737C118.465 88.6914 117.566 87.9767 116.402 87.793Z" fill="#172149"/>
<path d="M116.402 87.793L116.581 86.5372L105.396 84.9495L105.217 86.2054L105.437 84.9546C105.386 84.9444 105.36 84.9393 105.36 84.9342L105.309 85.0669L105.381 84.9495L105.36 84.9393L105.309 85.0721L105.381 84.9546L105.233 85.1997L105.452 85.0108L105.386 84.9546L105.238 85.1997L105.457 85.0108L105.355 85.1027L105.472 85.0261L105.462 85.0108L105.36 85.1027L105.478 85.0261L105.467 85.0108L100.393 74.806L99.2547 75.3727L100.408 74.8418C100.082 74.1271 99.5457 73.5349 98.8973 73.1316C98.249 72.7283 97.4833 72.5139 96.6869 72.5139C95.9007 72.5139 95.1605 72.7487 94.5326 73.1418C93.9047 73.5349 93.3789 74.0913 93.0113 74.7499L92.996 74.7754L87.9064 85.0057L89.0448 85.5723L87.9268 84.97L88.1055 85.0669L87.9575 84.924L87.9268 84.97L88.1055 85.0669L87.9575 84.924L88.0187 84.9802L87.9677 84.9138L87.9575 84.924L88.0187 84.9802L87.9677 84.9138C87.9677 84.9138 87.9064 84.9546 87.7941 84.9802L88.1412 86.2002L87.9524 84.9444L76.7521 86.6393H76.7368C75.9966 86.772 75.3023 87.0885 74.7255 87.5684C74.1486 88.0482 73.6943 88.6966 73.4492 89.4572C73.3063 89.8911 73.2399 90.3352 73.2399 90.7794C73.2399 91.8718 73.6636 92.9541 74.4753 93.7607H74.4804L82.6534 101.755L83.5417 100.846L82.6432 101.745L82.6687 101.775V101.786L82.9648 101.622H82.6432C82.6432 101.74 82.6739 101.786 82.6739 101.786L82.9648 101.622H82.6432H83.2099L82.6687 101.459C82.6534 101.515 82.6432 101.571 82.6432 101.622H83.2099L82.6687 101.459L82.6483 101.53L80.6472 112.965L80.6778 112.787C80.637 113.016 80.6166 113.251 80.6166 113.486C80.6166 114.145 80.7748 114.793 81.0658 115.38C81.3568 115.967 81.7907 116.498 82.3573 116.901L82.3778 116.917L82.3982 116.927C82.7351 117.146 83.1078 117.335 83.506 117.463C83.9092 117.59 84.3381 117.662 84.7822 117.657C85.0834 117.657 85.405 117.631 85.747 117.55C86.089 117.468 86.4413 117.33 86.7782 117.121L86.1044 116.044L86.6914 117.172L96.7431 111.934H96.7533L96.7379 111.904L96.7482 111.934L96.7328 111.904L96.7431 111.934L96.6716 111.756V111.944L96.7431 111.934L96.6716 111.756V111.944V111.73L96.6154 111.939H96.6716V111.73L96.6154 111.939L96.6512 111.812L96.6052 111.934H96.6205L96.6563 111.812L96.6103 111.934L106.713 117.197L106.759 117.218C107.351 117.468 107.974 117.596 108.592 117.596C109.47 117.596 110.343 117.34 111.083 116.835C111.675 116.437 112.114 115.891 112.405 115.293C112.696 114.696 112.839 114.043 112.839 113.379C112.839 113.17 112.824 112.955 112.793 112.746V112.725L110.833 101.525L109.582 101.745H110.853C110.853 101.668 110.863 101.617 110.868 101.607L110.69 101.53L110.828 101.668L110.868 101.607L110.69 101.53L110.828 101.668L109.929 100.77L110.817 101.678L118.99 93.6892C119.797 92.8775 120.226 91.7953 120.226 90.7028C120.226 90.2587 120.154 89.8145 120.016 89.3806V89.3908C119.777 88.62 119.317 87.9512 118.715 87.4612C118.112 86.9711 117.382 86.6597 116.601 86.5372H116.591H116.581L116.402 87.793L116.203 89.0488C116.586 89.1101 116.882 89.2479 117.112 89.4317C117.336 89.6154 117.5 89.8452 117.602 90.1617V90.177V90.1719C117.658 90.3506 117.689 90.5292 117.689 90.7079C117.689 91.152 117.52 91.5706 117.199 91.8923L118.097 92.7907L117.209 91.882L109.041 99.8662L109.031 99.8764C108.729 100.172 108.546 100.53 108.444 100.851C108.341 101.178 108.311 101.479 108.311 101.75V101.862L110.286 113.154L111.537 112.935L110.281 113.119C110.297 113.21 110.302 113.297 110.302 113.389C110.302 113.67 110.235 113.956 110.123 114.196C110.006 114.436 109.847 114.619 109.669 114.742C109.357 114.951 108.99 115.064 108.597 115.064C108.321 115.064 108.04 115.007 107.754 114.89L107.259 116.059L107.846 114.931L97.7998 109.698L97.2127 110.826L97.8151 109.708C97.4782 109.525 97.0851 109.417 96.6869 109.417C96.2887 109.417 95.8956 109.525 95.5536 109.708L96.156 110.826L95.5689 109.698L85.4765 114.956L85.4356 114.982C85.3488 115.038 85.2672 115.069 85.1651 115.094C85.063 115.12 84.9404 115.13 84.7873 115.13C84.5933 115.13 84.4453 115.104 84.2921 115.053C84.139 115.002 83.9807 114.926 83.7918 114.803L83.0976 115.87L83.8276 114.834C83.6285 114.696 83.46 114.497 83.3426 114.257C83.2252 114.022 83.1588 113.746 83.1588 113.496C83.1588 113.41 83.1639 113.323 83.1792 113.236L85.1344 102.051L83.8837 101.832L85.0987 102.199C85.1549 102.01 85.1855 101.816 85.1804 101.627C85.1804 101.239 85.0732 100.913 84.9353 100.642C84.7975 100.372 84.6239 100.147 84.4351 99.958L76.2569 91.9637L75.3687 92.8724L76.2672 91.9739C75.9455 91.6523 75.7771 91.2286 75.7771 90.7896C75.7771 90.6109 75.8026 90.4322 75.8639 90.2536C75.9609 89.9575 76.1293 89.7175 76.3539 89.5287C76.5786 89.3398 76.8593 89.2071 77.1758 89.156L76.9563 87.9053L77.1452 89.1611L88.4067 87.4561L88.4833 87.4356C88.7538 87.3591 89.055 87.2417 89.3511 87.0477C89.6472 86.8537 89.9484 86.5627 90.1526 86.1849L90.1628 86.1645L95.2473 75.9444L94.1089 75.3778L95.2218 75.9955C95.38 75.7045 95.6149 75.4646 95.8701 75.3063C96.1254 75.143 96.401 75.0664 96.6767 75.0664C97.0187 75.0664 97.3097 75.1583 97.5496 75.3012C97.7845 75.4493 97.9682 75.6483 98.0908 75.9138L98.101 75.9291L103.185 86.1543C103.344 86.481 103.599 86.8179 103.941 87.0528C104.278 87.2927 104.656 87.4152 105.003 87.4714H105.023L116.229 89.0641L116.407 87.8083L116.402 87.793Z" fill="#172149"/>
<path d="M142.861 82.6778L140.64 80.4571C138.66 78.4764 137.919 75.5921 138.66 72.8967L139.507 69.8848C141.069 64.3868 137.843 58.6489 132.345 57.0868L130.124 56.4537C127.373 55.688 125.285 53.4674 124.677 50.6647L124.177 48.4186C123.595 45.7232 121.982 43.3953 119.654 41.8894C117.326 40.3834 114.549 39.878 111.854 40.46L106.779 41.5729C104.217 42.1293 101.547 41.3636 99.6937 39.4849L96.0182 35.8094C94.063 33.8542 91.4441 32.7668 88.6926 32.7668C85.941 32.7668 83.3273 33.8491 81.367 35.8094L79.1464 38.03C77.1656 40.0107 74.2813 40.751 71.5859 40.0107L68.5996 39.1633C65.9297 38.4231 63.1271 38.7396 60.7226 40.0873C58.3182 41.435 56.5723 43.6557 55.8066 46.3256L55.1736 48.5462C54.4078 51.2978 52.1872 53.3857 49.3846 53.9932L47.1384 54.4934C41.5587 55.7084 37.9904 61.2371 39.2053 66.8117L40.3182 71.886C40.8747 74.4793 40.1089 77.1185 38.2303 78.9716L34.5547 82.6472C32.5996 84.6024 31.5122 87.2212 31.5122 89.9727C31.5122 92.7243 32.5945 95.338 34.5547 97.2983L36.7754 99.519C38.7561 101.5 39.4963 104.384 38.7561 107.079L37.8576 110.091C36.2955 115.589 39.5219 121.327 45.0199 122.889L47.2405 123.522C49.9921 124.288 52.08 126.509 52.6875 129.311L53.1878 131.558C53.7697 134.253 55.3829 136.581 57.7107 138.087C60.0386 139.593 62.8157 140.098 65.5111 139.516L70.5854 138.403C73.1787 137.847 75.8179 138.613 77.671 140.491L81.3466 144.167C83.3018 146.122 85.9206 147.209 88.6722 147.209C91.4237 147.209 94.0374 146.127 95.9977 144.167L98.2184 141.946C100.199 139.965 103.083 139.225 105.779 139.965L108.791 140.813C114.289 142.375 120.027 139.149 121.589 133.651L122.222 131.43C122.988 128.678 125.208 126.59 128.011 125.983L130.257 125.483C132.952 124.901 135.28 123.288 136.786 120.96C138.292 118.632 138.798 115.855 138.216 113.159L137.103 108.085C136.546 105.492 137.312 102.852 139.191 100.999L142.866 97.3239C144.821 95.3687 145.909 92.7498 145.909 89.9983C145.909 87.2467 144.826 84.633 142.866 82.6727L142.861 82.6778ZM123.059 90.0034C123.059 108.958 107.647 124.375 88.6875 124.375C69.7277 124.375 54.316 108.963 54.316 90.0034C54.316 71.0436 69.7277 55.6318 88.6875 55.6318C107.647 55.6318 123.059 71.0436 123.059 90.0034Z" fill="white"/>
<path d="M142.861 82.6778L144.786 80.7532L142.565 78.5326C141.605 77.5728 141.1 76.3017 141.1 74.9795C141.1 74.5252 141.161 74.0708 141.284 73.6165V73.6318L142.126 70.6199C142.463 69.4458 142.621 68.2461 142.621 67.072C142.621 64.2081 141.672 61.4719 140.012 59.241C138.353 57.0153 135.959 55.2847 133.085 54.4679L130.859 53.8349H130.849C129.073 53.3346 127.73 51.9103 127.332 50.0879V50.0725L126.826 47.8213V47.8417C126.102 44.4418 124.049 41.4912 121.129 39.6023C118.995 38.2189 116.54 37.4991 114.049 37.5042C113.125 37.5042 112.196 37.6012 111.277 37.8003H111.267L106.192 38.9132H106.197C105.84 38.9897 105.478 39.0255 105.125 39.0255C103.813 39.0255 102.563 38.5201 101.628 37.5706L97.9376 33.8797C95.477 31.4191 92.1588 30.0408 88.6926 30.0408C85.2059 30.0357 81.8928 31.4242 79.4475 33.8797L77.2269 36.1003C76.2671 37.0601 74.996 37.5655 73.6738 37.5655C73.2195 37.5655 72.7652 37.5042 72.3108 37.3817H72.3312L69.3346 36.5394H69.3295C68.1554 36.2126 66.9557 36.0493 65.7612 36.0493C63.5559 36.0493 61.3607 36.6108 59.3953 37.7135C56.363 39.4083 54.1475 42.2365 53.1928 45.5751L52.5547 47.8111C52.0595 49.5876 50.6353 50.9302 48.8077 51.3335L46.5462 51.8389H46.5615C43.5088 52.4974 40.9206 54.1973 39.1134 56.469C37.3012 58.7407 36.2496 61.5995 36.2496 64.6165C36.2496 65.5354 36.3466 66.4645 36.5508 67.3936L36.6018 67.6335L37.6636 72.4883V72.4577C37.7351 72.8252 37.7708 73.1877 37.7708 73.545C37.7708 74.8621 37.2705 76.0873 36.3159 77.0317L36.2955 77.0521L32.6251 80.7226C30.1645 83.1832 28.7861 86.5014 28.7861 89.9676C28.781 93.4543 30.1696 96.7674 32.6251 99.2127L34.8457 101.433C35.8054 102.393 36.3108 103.664 36.3108 104.986C36.3108 105.441 36.2496 105.895 36.127 106.349L38.751 107.069L36.1424 106.293L35.2388 109.32V109.341C34.8968 110.52 34.7385 111.72 34.7385 112.899C34.7385 115.763 35.6829 118.499 37.3471 120.73C39.0062 122.956 41.4055 124.686 44.2745 125.503L46.5003 126.136H46.5105C48.287 126.636 49.6296 128.061 50.0278 129.883V129.898L50.5332 132.15V132.129C51.2581 135.529 53.3103 138.48 56.2303 140.369C58.3641 141.752 60.8196 142.472 63.3108 142.467C64.2348 142.467 65.1639 142.37 66.0828 142.171H66.093L71.1673 141.058H71.1571C71.5247 140.981 71.8871 140.945 72.2445 140.945C73.5615 140.945 74.7867 141.446 75.7311 142.4L79.4169 146.091C81.8775 148.552 85.1957 149.93 88.6619 149.93C92.1486 149.935 95.4617 148.547 97.907 146.091L100.128 143.871C101.087 142.911 102.358 142.405 103.681 142.405C104.135 142.405 104.589 142.467 105.044 142.589H105.028L108.04 143.432H108.035C109.214 143.763 110.414 143.927 111.593 143.927C114.457 143.927 117.193 142.977 119.424 141.318C121.65 139.659 123.381 137.265 124.197 134.391L124.835 132.16C125.331 130.383 126.755 129.041 128.583 128.637H128.593L130.849 128.132H130.829C134.229 127.407 137.179 125.355 139.068 122.435C140.451 120.301 141.171 117.846 141.166 115.354C141.166 114.43 141.069 113.501 140.87 112.582V112.572L139.757 107.498V107.508C139.681 107.141 139.645 106.778 139.645 106.421C139.645 105.104 140.145 103.879 141.1 102.934L141.115 102.919L144.791 99.2433C147.251 96.7827 148.63 93.4645 148.63 89.9982C148.635 86.5116 147.246 83.1985 144.791 80.7532L142.866 82.6778L140.942 84.6023C142.402 86.0674 143.178 87.9358 143.183 90.0033C143.183 92.0351 142.391 93.9495 140.942 95.4044L137.266 99.0799L137.281 99.0646C135.28 101.03 134.203 103.695 134.203 106.426C134.203 107.171 134.28 107.917 134.443 108.657L135.561 113.772L135.551 113.736C135.668 114.282 135.724 114.824 135.724 115.365C135.724 116.814 135.316 118.223 134.499 119.484C133.371 121.215 131.676 122.389 129.68 122.823H129.67L127.413 123.328H127.429C123.651 124.14 120.629 126.978 119.593 130.7V130.685L118.965 132.905C118.485 134.6 117.484 135.983 116.172 136.959C114.86 137.934 113.257 138.49 111.598 138.485C110.914 138.485 110.22 138.393 109.526 138.194H109.521L106.493 137.341C105.569 137.086 104.625 136.964 103.691 136.964C100.96 136.964 98.2847 138.031 96.2887 140.027L94.068 142.247C92.6029 143.707 90.7345 144.483 88.667 144.488C86.6353 144.488 84.7209 143.697 83.266 142.247L79.5905 138.572L79.6058 138.587C77.6404 136.586 74.9756 135.509 72.2445 135.509C71.5042 135.509 70.7538 135.585 70.0136 135.744L64.9291 136.856H64.9393C64.3931 136.974 63.8519 137.03 63.3108 137.03C61.861 137.03 60.4521 136.622 59.1911 135.805C57.4606 134.677 56.2864 132.982 55.8525 130.986L55.3471 128.719V128.734C54.5354 124.957 51.6971 121.935 47.9756 120.898H47.9909L45.7703 120.271C44.0805 119.791 42.6971 118.79 41.722 117.478C40.747 116.166 40.1906 114.563 40.1957 112.904C40.1957 112.22 40.2876 111.531 40.4867 110.831L37.8678 110.086L40.4764 110.862L41.3851 107.82L41.3953 107.789C41.6506 106.865 41.7731 105.921 41.7731 104.986C41.7731 102.255 40.7062 99.5802 38.7101 97.5842L36.4895 95.3635C35.0346 93.8984 34.2535 92.03 34.2484 89.9625C34.2484 87.9307 35.0397 86.0164 36.4895 84.5615L40.165 80.8859L40.1497 80.9013C42.1458 78.9359 43.228 76.2711 43.2229 73.5399C43.2229 72.7997 43.1463 72.0493 42.9881 71.3091V71.2989L41.8752 66.2246C41.7578 65.6783 41.7016 65.1423 41.7016 64.6063C41.7016 62.8604 42.3142 61.186 43.376 59.8536C44.443 58.5161 45.9387 57.536 47.7255 57.148H47.7408L49.9869 56.6426H49.9716C53.7493 55.8309 56.7714 52.9926 57.8077 49.2711V49.2864L58.4356 47.0657C59.0125 45.0697 60.2887 43.4566 62.0703 42.4509C63.224 41.8077 64.485 41.486 65.7765 41.4809C66.4759 41.4809 67.1855 41.5779 67.8899 41.7719H67.8746L70.8712 42.6193H70.8814C71.8054 42.8746 72.7498 43.0022 73.6841 43.0022C76.4152 43.0022 79.0902 41.9353 81.0862 39.9393L83.3068 37.7186C84.772 36.2586 86.6404 35.4826 88.7079 35.4775C90.7396 35.4775 92.654 36.2688 94.1089 37.7186L97.7844 41.3942L97.7691 41.3788C99.7447 43.3851 102.415 44.4571 105.146 44.4571C105.886 44.4571 106.631 44.3805 107.372 44.2172H107.382L112.451 43.1043H112.446C112.987 42.9869 113.533 42.9307 114.069 42.9307C115.519 42.9307 116.928 43.3391 118.189 44.1559C119.919 45.2841 121.094 46.979 121.527 48.975V48.9852L122.033 51.2416V51.2263C122.845 55.0039 125.683 58.026 129.404 59.0623H129.389L131.61 59.6902C133.299 60.1701 134.683 61.1707 135.658 62.4826C136.633 63.7946 137.189 65.3976 137.184 67.0567C137.184 67.7407 137.092 68.435 136.893 69.1293L136.883 69.1599L136.046 72.1463V72.1616C135.786 73.0856 135.663 74.03 135.663 74.9642C135.663 77.6954 136.73 80.3703 138.726 82.3664L140.947 84.587L142.871 82.6625L142.861 82.6778ZM123.059 90.0033H120.338C120.338 98.7379 116.795 106.63 111.057 112.373C105.319 118.111 97.422 121.649 88.6875 121.654C79.9529 121.654 72.0607 118.111 66.3176 112.373C60.5797 106.635 57.042 98.7379 57.0369 90.0033C57.0369 81.2688 60.5797 73.3766 66.3176 67.6335C72.0556 61.8956 79.9529 58.3579 88.6875 58.3528C97.422 58.3528 105.314 61.8956 111.057 67.6335C116.795 73.3715 120.333 81.2688 120.338 90.0033H125.78C125.78 79.7782 121.614 70.4923 114.906 63.7844C108.199 57.0765 98.9126 52.9109 88.6875 52.9109C78.4623 52.9109 69.1764 57.0765 62.4685 63.7844C55.7606 70.4923 51.595 79.7782 51.595 90.0033C51.595 100.229 55.7606 109.514 62.4685 116.222C69.1764 122.93 78.4623 127.096 88.6875 127.096C98.9126 127.096 108.199 122.93 114.906 116.222C121.614 109.514 125.78 100.229 125.78 90.0033H123.059Z" fill="#172149"/>
<path d="M88.7181 125.978C108.296 125.978 124.167 110.107 124.167 90.5292C124.167 70.9515 108.296 55.0806 88.7181 55.0806C69.1403 55.0806 53.2694 70.9515 53.2694 90.5292C53.2694 110.107 69.1403 125.978 88.7181 125.978Z" fill="#172149"/>
<path d="M124.167 90.5292H123.146C123.146 100.04 119.292 108.642 113.064 114.875C106.83 121.108 98.2286 124.957 88.7181 124.957C79.2076 124.957 70.6058 121.103 64.3727 114.875C58.1395 108.642 54.2904 100.04 54.2904 90.5292C54.2904 81.0187 58.1447 72.4169 64.3727 66.1838C70.6058 59.9506 79.2076 56.1015 88.7181 56.1015C98.2286 56.1015 106.83 59.9557 113.064 66.1838C119.297 72.4169 123.146 81.0187 123.146 90.5292H125.193C125.193 70.3851 108.862 54.0544 88.7181 54.0544C68.574 54.0544 52.2433 70.3851 52.2433 90.5292C52.2433 110.673 68.574 127.004 88.7181 127.004C108.862 127.004 125.193 110.673 125.193 90.5292H124.172H124.167Z" fill="#172149"/>
<path d="M99.8468 78.7726L110.792 80.35C113.896 80.7992 115.141 84.6075 112.895 86.8026L104.982 94.5315C104.089 95.4045 103.686 96.6552 103.9 97.8804L105.784 108.779C106.32 111.868 103.078 114.231 100.296 112.777L90.4997 107.641C89.397 107.064 88.08 107.064 86.9773 107.641L77.1962 112.797C74.4243 114.262 71.1724 111.904 71.7033 108.815L73.5615 97.911C73.7708 96.6858 73.3624 95.43 72.4691 94.5621L64.5411 86.8537C62.2949 84.6688 63.5252 80.8503 66.629 80.3959L77.574 78.793C78.8043 78.6143 79.8712 77.8384 80.4226 76.7204L85.308 66.7964C86.6914 63.9836 90.7039 63.9785 92.0924 66.7862L96.9983 76.7C97.5496 77.818 98.6165 78.5888 99.8519 78.7675L99.8468 78.7726Z" fill="white"/>
<path d="M99.8468 78.7726L99.6631 80.0335L110.608 81.611C111.297 81.7131 111.808 82.0347 112.185 82.489C112.558 82.9433 112.767 83.5304 112.767 84.1175C112.767 84.7505 112.543 85.3631 112.007 85.894L104.094 93.6229C103.114 94.5826 102.573 95.8895 102.573 97.2423C102.573 97.5281 102.598 97.814 102.649 98.105L104.533 108.999C104.559 109.157 104.574 109.305 104.574 109.453C104.574 110.158 104.288 110.765 103.818 111.22C103.349 111.674 102.711 111.944 102.062 111.944C101.685 111.944 101.297 111.858 100.898 111.648L91.1021 106.513C90.367 106.13 89.5604 105.936 88.7538 105.936C87.9421 105.936 87.1304 106.13 86.3953 106.518L76.6143 111.674C76.2161 111.883 75.823 111.97 75.4452 111.97C74.7969 111.97 74.1537 111.699 73.6891 111.245C73.2195 110.786 72.9336 110.183 72.9336 109.479C72.9336 109.336 72.9438 109.188 72.9745 109.035L74.8327 98.1305C74.8786 97.8447 74.9041 97.5639 74.9041 97.2831C74.9041 95.9303 74.3579 94.6183 73.3726 93.6586L65.4447 85.9502C64.9035 85.4192 64.684 84.8066 64.6789 84.1736C64.6789 83.5866 64.8882 82.9995 65.2558 82.5452C65.6285 82.0908 66.1389 81.7692 66.8281 81.6671L77.7731 80.0642C79.422 79.8242 80.8412 78.7879 81.5763 77.2922L86.4566 67.3682C86.6965 66.8832 87.0283 66.5463 87.4163 66.3166C87.8043 66.0869 88.2535 65.9643 88.7079 65.9643C89.1622 65.9643 89.6114 66.0817 89.9994 66.3115C90.3874 66.5412 90.7192 66.8781 90.9591 67.358L95.865 77.2718C96.6052 78.7624 98.0295 79.7987 99.6784 80.0335L99.8621 78.7726L100.046 77.5117C99.2291 77.3943 98.5195 76.8787 98.152 76.1385L93.2461 66.2247C92.7918 65.3058 92.0975 64.586 91.3012 64.1163C90.5048 63.6467 89.6063 63.4119 88.713 63.4119C87.8145 63.4119 86.916 63.6467 86.1197 64.1163C85.3233 64.586 84.629 65.3109 84.1747 66.2349L79.2893 76.1589C78.9268 76.8991 78.2172 77.4147 77.4004 77.5321L66.4555 79.1351C65.1333 79.3239 64.0204 80.008 63.2802 80.9218C62.5349 81.8407 62.1316 82.9842 62.1265 84.1583C62.1265 85.4294 62.6216 86.7567 63.6631 87.7624L71.591 95.4709C72.0811 95.9456 72.3517 96.599 72.3517 97.2729C72.3517 97.4158 72.3414 97.5537 72.3159 97.6966L70.4475 108.657L70.4577 108.596C70.4067 108.892 70.3811 109.183 70.3811 109.474C70.3811 110.898 70.9886 112.179 71.9126 113.073C72.8366 113.966 74.0924 114.512 75.4401 114.517C76.2263 114.517 77.038 114.328 77.7986 113.925L87.5797 108.769C87.9472 108.575 88.3454 108.478 88.7487 108.478C89.152 108.478 89.5502 108.575 89.9177 108.764L99.7141 113.9C100.47 114.298 101.281 114.487 102.062 114.487C103.415 114.487 104.666 113.941 105.59 113.042C106.514 112.149 107.121 110.872 107.121 109.448C107.121 109.157 107.096 108.861 107.045 108.56L105.161 97.6609C105.136 97.5179 105.125 97.375 105.125 97.2321C105.125 96.5633 105.396 95.915 105.881 95.4351L113.794 87.7062C114.83 86.7006 115.325 85.3784 115.32 84.1124C115.32 82.9331 114.911 81.7896 114.166 80.8707C113.421 79.9519 112.308 79.2729 110.981 79.084L100.036 77.5066L99.8519 78.7675L99.8468 78.7726Z" fill="#172149"/>
</g>
<defs>
<clipPath id="clip0_161_673">
<rect width="180" height="180" fill="white"/>
</clipPath>
</defs>
</svg>
