<?xml version="1.0" encoding="UTF-8"?>
<svg id="Layer_2" data-name="Layer 2" xmlns="http://www.w3.org/2000/svg" viewBox="0 0 524.08 100.56">
  <defs>
    <style>
      .cls-1 {
        fill: #000;
        stroke-width: 0px;
      }
    </style>
  </defs>
  <g id="Objects">
    <path class="cls-1" d="M445.51,98.4c1.57,2.27,4.71,2.83,6.97,1.28l69.44-47.88c1.4-.97,2.22-2.59,2.16-4.3-.06-1.71-1-3.27-2.47-4.13L448.86.69c-.86-.5-1.79-.72-2.71-.68-1.65.06-3.24.94-4.14,2.47-1.4,2.38-.59,5.45,1.79,6.84l57.92,33.98c-52.06,1.69-149.33,3.39-243.59,5.05-100.41,1.76-204.23,3.59-253.31,5.38-2.7.1-4.82,2.32-4.82,4.99,0,.06,0,.12,0,.19.1,2.76,2.42,4.92,5.18,4.81,48.98-1.79,152.76-3.61,253.12-5.38,94.36-1.66,191.73-3.37,243.85-5.06l-55.35,38.16c-2.28,1.57-2.86,4.69-1.29,6.96Z"/>
  </g>
</svg>