<?xml version="1.0" encoding="UTF-8"?>
<svg id="Layer_2" data-name="Layer 2" xmlns="http://www.w3.org/2000/svg" viewBox="0 0 134 134">
  <defs>
    <style>
      .cls-1 {
        fill: #fff;
      }

      .cls-2 {
        fill: #073e5f;
      }
    </style>
  </defs>
  <g id="Layer_1-2" data-name="Layer 1">
    <g id="Group_53" data-name="Group 53">
      <g id="Rectangle_38" data-name="Rectangle 38">
        <g>
          <rect class="cls-2" width="134" height="134" rx="15" ry="15"/>
          <rect class="cls-1" x="1.68" y="1.68" width="130.63" height="130.63" rx="13.86" ry="13.86"/>
        </g>
      </g>
    </g>
    <path class="cls-1" d="m54.82,93.31c0,2.41-1.95,4.36-4.36,4.36s-4.36-1.95-4.36-4.36,1.95-4.36,4.36-4.36,4.36,1.95,4.36,4.36Z"/>
    <rect class="cls-2" x="20.67" y="16.55" width="96.76" height="16.35" rx="1.18" ry="1.18"/>
    <rect class="cls-2" x="19.9" y="95.73" width="94.94" height="14.79" rx=".99" ry=".99"/>
    <path class="cls-2" d="m60.91,54.89s14.24,15.92,9.34,26.64c0,0,8.11-7.66,5.51-15.31,0,0,18.07,28.48-8.42,32.61,0,0-19.75,1.22-14.09-19.44,0,0,12.71-20.36,7.66-24.5Z"/>
    <polygon class="cls-2" points="27.15 34.83 27.15 93.31 41.55 93.31 41.55 45.53 96.15 45.53 96.15 93.31 110.56 93.31 110.56 34.83 27.15 34.83"/>
  </g>
</svg>