<?xml version="1.0" encoding="UTF-8"?>
<svg id="Layer_2" data-name="Layer 2" xmlns="http://www.w3.org/2000/svg" viewBox="0 0 134 134">
  <defs>
    <style>
      .cls-1 {
        fill: #fff;
      }

      .cls-2 {
        fill: #073e5f;
      }
    </style>
  </defs>
  <g id="Layer_1-2" data-name="Layer 1">
    <g id="Group_53" data-name="Group 53">
      <g id="Rectangle_38" data-name="Rectangle 38">
        <g>
          <rect class="cls-2" width="134" height="134" rx="15" ry="15"/>
          <rect class="cls-1" x="1.68" y="1.68" width="130.63" height="130.63" rx="13.86" ry="13.86"/>
        </g>
      </g>
    </g>
    <path class="cls-1" d="m54.82,93.31c0,2.41-1.95,4.36-4.36,4.36s-4.36-1.95-4.36-4.36,1.95-4.36,4.36-4.36,4.36,1.95,4.36,4.36Z"/>
    <g>
      <path class="cls-2" d="m47.14,22.98h-13.55c.17.63-1.61,2.31-1.61,2.31l16.75-.15c-1.19-.52-1.6-2.16-1.6-2.16Z"/>
      <path class="cls-2" d="m51.09,50.63l.39,1.03.36-.15.36-.15-.46-1c-.12.17-.31.3-.54.3-.04,0-.07-.02-.11-.02Z"/>
      <path class="cls-2" d="m50.53,49.98c0,.33.24.59.56.65l-.4-1.06c-.09.11-.16.25-.16.41Z"/>
      <path class="cls-2" d="m55.52,48.42l.84-.35c-.8-2-2.7-3.42-4.93-3.42v.93c1.85,0,3.43,1.17,4.09,2.84Z"/>
      <path class="cls-2" d="m49.55,46.04l-.18.07,1.32,3.46c.12-.15.3-.26.51-.26.02,0,.04.01.07.01l-1.55-3.36-.18.07Z"/>
      <path class="cls-2" d="m51.87,49.98c0-.35-.27-.62-.6-.66l.47,1.03c.08-.11.13-.23.13-.37Z"/>
      <path class="cls-2" d="m51.06,45.59v-.93c-2.23,0-4.13,1.41-4.93,3.42l.84.35c.66-1.66,2.24-2.84,4.09-2.84Z"/>
      <path class="cls-2" d="m70.09,26.32h-37.69c-3.31,0-6,2.69-6,6v62c0,3.31,2.69,6,6,6h11.52v9.92c.03.43.41.76.84.72.39-.03.69-.34.72-.72v-9.92h4.79v9.92c0,.43.35.78.78.78s.78-.35.78-.78v-9.92h4.79v9.92c.03.43.41.76.84.72.39-.03.69-.34.72-.72v-9.92h11.89c3.31,0,6-2.69,6-6v-62c0-3.31-2.69-6-6-6Zm-18.85,16.31c3.33,0,6.03,2.7,6.03,6.03s-2.7,6.03-6.03,6.03-6.03-2.7-6.03-6.03,2.7-6.03,6.03-6.03Zm-7.51,49.24s0,0,0,0,0,0,0,0h0c0,2.4-1.95,4.35-4.36,4.35h0c-2.41,0-4.36-1.96-4.35-4.37,0-2.41,1.96-4.36,4.37-4.35,2.4,0,4.35,1.95,4.35,4.36h0Zm24.93.79h-15.91c-.39-.03-.69-.34-.72-.72-.03-.43.29-.81.72-.84h15.91c.39.03.69.34.72.72.03.43-.29.81-.72.84Zm7.36-8.12c-12.02.02-14.4-1.55-14.4-1.55-8.55-4.5-13.38-2.57-13.38-2.57-1.59-.09-5.88,1.77-5.88,1.77-1.56,1.86-10.38,2.34-10.38,2.34h-5.52v-1.8l6.14-.24c4.41-.23,7.16-1.16,7.16-1.16,1.31-.75,7.2-2.8,7.2-2.8,7.16-1.44,12.74,1.48,12.74,1.48,3.56,2.51,10.44,2.48,10.44,2.48l5.9.14v1.91Z"/>
      <path class="cls-2" d="m39.37,89.07c-1.54,0-2.79,1.25-2.79,2.8s1.25,2.79,2.8,2.79,2.79-1.25,2.79-2.8c0-.74-.29-1.45-.82-1.97-.52-.52-1.24-.82-1.98-.82Z"/>
    </g>
    <g>
      <path class="cls-2" d="m110.73,44.02c0-4.63-3.76-8.39-8.39-8.39h-11.75c-4.63,0-8.39,3.76-8.39,8.39v9.85h28.53v-9.85Z"/>
      <rect class="cls-2" x="82.2" y="57.22" width="28.53" height="18.71"/>
      <rect class="cls-2" x="82.2" y="79.27" width="28.53" height="22.36"/>
      <rect class="cls-2" x="110.73" y="53.87" width=".57" height="3.34"/>
      <rect class="cls-2" x="81.16" y="53.87" width="1.05" height="3.34"/>
      <rect class="cls-2" x="81.5" y="75.92" width=".71" height="3.34"/>
      <rect class="cls-2" x="110.73" y="75.92" width=".71" height="3.34"/>
      <path class="cls-2" d="m102.16,34.28c0-.51-.42-.93-.93-.93h-10c-.51,0-.93.42-.93.93v.65h11.86v-.65Z"/>
      <rect class="cls-2" x="91.39" y="28.79" width="2.55" height="4.04"/>
      <rect class="cls-2" x="98.52" y="28.79" width="2.55" height="4.04"/>
      <path class="cls-2" d="m97.71,32.64v-1.77c.43-.36.7-.9.7-1.5s-.27-1.14-.7-1.5v-1.77h-2.51v1.77c-.43.36-.7.9-.7,1.5s.27,1.14.7,1.5v1.77h2.51Zm-2.71-3.27c0-.8.65-1.45,1.45-1.45s1.45.65,1.45,1.45-.65,1.45-1.45,1.45-1.45-.65-1.45-1.45Z"/>
      <rect class="cls-2" x="91.63" y="24.13" width="9.65" height="1.74" rx=".51" ry=".51"/>
    </g>
  </g>
</svg>