<?xml version="1.0" encoding="UTF-8"?>
<svg id="Layer_2" data-name="Layer 2" xmlns="http://www.w3.org/2000/svg" viewBox="0 0 134 134">
  <defs>
    <style>
      .cls-1 {
        fill: #055d8c;
      }

      .cls-2 {
        fill: #fff;
      }

      .cls-3 {
        fill: #f0efef;
      }

      .cls-4 {
        fill: #073e5f;
      }

      .cls-5 {
        fill: #eeedee;
      }
    </style>
  </defs>
  <g id="Layer_1-2" data-name="Layer 1">
    <g id="Group_53" data-name="Group 53">
      <g id="Rectangle_38" data-name="Rectangle 38">
        <g>
          <rect class="cls-4" width="134" height="134" rx="15" ry="15"/>
          <rect class="cls-2" x="1.68" y="1.68" width="130.63" height="130.63" rx="13.86" ry="13.86"/>
        </g>
      </g>
    </g>
    <path class="cls-2" d="m52.41,93.17c0,2.27-1.84,4.11-4.11,4.11s-4.11-1.84-4.11-4.11,1.84-4.11,4.11-4.11,4.11,1.84,4.11,4.11Z"/>
    <g>
      <polygon class="cls-4" points="55.46 94.74 89.46 95.03 89.46 59.87 90.47 59.87 90.47 96.38 55.46 95.99 55.46 94.74"/>
      <polygon class="cls-4" points="51.09 90.12 85.09 90.41 85.09 55.25 86.11 55.25 86.11 91.76 51.09 91.38 51.09 90.12"/>
      <g>
        <path class="cls-4" d="m65.33,108.77c0,3.1-32.53,3.1-32.53,0V40.19c10.84-3.1,21.69-3.1,32.53,0v68.58Z"/>
        <path class="cls-1" d="m32.79,41.33v-1.34s.39-3.3,15.75-3.12c0,0,11.76-.98,16.79,3.08v1.38s-1.67-3.12-16.82-2.61c0,0-13.16-.33-15.71,2.61Z"/>
        <path class="cls-1" d="m32.79,108.23v1.34s.39,3.3,15.75,3.12c0,0,11.76.98,16.79-3.08v-1.38s-1.67,3.12-16.82,2.61c0,0-13.16.33-15.71-2.61Z"/>
      </g>
      <circle class="cls-5" cx="49.06" cy="96.78" r="5.15"/>
      <ellipse class="cls-4" cx="49.06" cy="96.78" rx="4.19" ry="2.92"/>
      <circle class="cls-5" cx="49.06" cy="96.78" r="1.09"/>
      <g>
        <path class="cls-3" d="m48.81,54.42c.23.14.53.06.66-.17s.06-.53-.17-.66c-.23-.14-.53-.06-.66.17-.14.23-.06.53.17.66Z"/>
        <rect class="cls-3" x="48.9" y="48.54" width=".31" height="1.23"/>
        <polygon class="cls-3" points="51.29 49.02 51 48.9 50.53 50.03 50.82 50.15 51.29 49.02"/>
        <rect class="cls-3" x="51.87" y="50.42" width="1.23" height=".31" transform="translate(-20.39 51.94) rotate(-45.01)"/>
        <rect class="cls-3" x="52.92" y="51.99" width="1.23" height=".31" transform="translate(-15.89 24.49) rotate(-22.53)"/>
        <rect class="cls-3" x="53.29" y="53.84" width="1.23" height=".31"/>
        <rect class="cls-3" x="43.6" y="53.84" width="1.23" height=".31"/>
        <rect class="cls-3" x="44.43" y="51.53" width=".31" height="1.23" transform="translate(-20.67 73.34) rotate(-67.46)"/>
        <rect class="cls-3" x="45.48" y="49.96" width=".31" height="1.23" transform="translate(-22.4 47.06) rotate(-44.98)"/>
        <polygon class="cls-3" points="47.59 50.03 47.11 48.9 46.82 49.02 47.29 50.15 47.59 50.03"/>
        <polygon class="cls-3" points="49.87 54.78 50.13 54.34 45.49 51.74 45.38 51.93 49.87 54.78"/>
      </g>
      <polygon class="cls-4" points="59.7 102.33 93.7 102.62 93.7 67.46 94.72 67.46 94.72 103.98 59.7 103.59 59.7 102.33"/>
    </g>
    <g>
      <path class="cls-4" d="m87.34,21.2h-9.18c.11.43-1.09,1.56-1.09,1.56l11.35-.1c-.81-.35-1.08-1.46-1.08-1.46Z"/>
      <path class="cls-4" d="m90.02,39.93l.27.7.24-.1.24-.1-.31-.68c-.08.12-.21.2-.37.2-.03,0-.05-.01-.08-.02Z"/>
      <path class="cls-4" d="m89.64,39.49c0,.22.17.4.38.44l-.27-.72c-.06.08-.11.17-.11.28Z"/>
      <path class="cls-4" d="m93.01,38.44l.57-.24c-.54-1.36-1.83-2.31-3.34-2.31v.63c1.25,0,2.32.79,2.77,1.92Z"/>
      <path class="cls-4" d="m88.97,36.82l-.12.05.89,2.34c.08-.1.21-.17.35-.17.02,0,.03,0,.04,0l-1.05-2.28-.12.05Z"/>
      <path class="cls-4" d="m90.55,39.49c0-.23-.18-.42-.41-.44l.32.7c.05-.07.09-.16.09-.25Z"/>
      <path class="cls-4" d="m89.99,36.52v-.63c-1.51,0-2.8.96-3.34,2.31l.57.24c.45-1.13,1.52-1.92,2.77-1.92Z"/>
      <path class="cls-4" d="m102.88,23.47h-25.53c-2.24,0-4.06,1.82-4.06,4.06v41.99c0,2.24,1.82,4.06,4.06,4.06h7.8v6.72c.02.29.28.51.57.49.26-.02.47-.23.49-.49v-6.72h3.24v6.72c0,.29.24.53.53.53s.53-.24.53-.53v-6.72h3.24v6.72c.02.29.28.51.57.49.26-.02.47-.23.49-.49v-6.72h8.05c2.24,0,4.06-1.82,4.06-4.06V27.53c0-2.24-1.82-4.06-4.06-4.06Zm-12.76,11.04c2.26,0,4.08,1.83,4.08,4.08s-1.83,4.08-4.08,4.08-4.08-1.83-4.08-4.08,1.83-4.08,4.08-4.08Zm-5.08,33.35s0,0,0,0,0,0,0,0h0c0,1.63-1.32,2.95-2.95,2.95h0c-1.63,0-2.95-1.33-2.95-2.96,0-1.63,1.33-2.95,2.96-2.95,1.63,0,2.95,1.32,2.95,2.95h0Zm16.88.54h-10.77c-.26-.02-.47-.23-.49-.49-.02-.29.2-.55.49-.57h10.77c.26.02.47.23.49.49.02.29-.2.55-.49.57Zm4.99-5.5c-8.14.01-9.76-1.05-9.76-1.05-5.79-3.05-9.06-1.74-9.06-1.74-1.08-.06-3.98,1.2-3.98,1.2-1.06,1.26-7.03,1.59-7.03,1.59h-3.74v-1.22l4.16-.16c2.99-.15,4.85-.79,4.85-.79.88-.51,4.88-1.9,4.88-1.9,4.85-.98,8.63,1,8.63,1,2.41,1.7,7.07,1.68,7.07,1.68l3.99.09v1.29Z"/>
      <path class="cls-4" d="m82.08,65.97c-1.05,0-1.89.85-1.89,1.89s.85,1.89,1.89,1.89,1.89-.85,1.89-1.89c0-.5-.2-.98-.55-1.34-.36-.36-.84-.56-1.34-.55Z"/>
    </g>
  </g>
</svg>