<?xml version="1.0" encoding="UTF-8"?>
<svg id="Layer_2" data-name="Layer 2" xmlns="http://www.w3.org/2000/svg" viewBox="0 0 134 134">
  <defs>
    <style>
      .cls-1 {
        fill: #fff;
      }

      .cls-2 {
        fill: #073e5f;
      }
    </style>
  </defs>
  <g id="Layer_1-2" data-name="Layer 1">
    <g id="Group_53" data-name="Group 53">
      <g id="Rectangle_38" data-name="Rectangle 38">
        <g>
          <rect class="cls-2" width="134" height="134" rx="15" ry="15"/>
          <rect class="cls-1" x="1.68" y="1.68" width="130.63" height="130.63" rx="13.86" ry="13.86"/>
        </g>
      </g>
    </g>
    <path class="cls-1" d="m54.82,93.31c0,2.41-1.95,4.36-4.36,4.36s-4.36-1.95-4.36-4.36,1.95-4.36,4.36-4.36,4.36,1.95,4.36,4.36Z"/>
    <g>
      <path class="cls-2" d="m62,13.33h-16.52c.2.77-1.96,2.82-1.96,2.82l20.42-.18c-1.45-.63-1.95-2.63-1.95-2.63Z"/>
      <path class="cls-2" d="m66.82,47.04l.48,1.25.44-.18.44-.18-.56-1.22c-.15.21-.38.36-.66.36-.05,0-.09-.02-.14-.03Z"/>
      <path class="cls-2" d="m66.14,46.25c0,.4.3.72.68.79l-.49-1.29c-.11.14-.19.31-.19.5Z"/>
      <path class="cls-2" d="m72.21,44.35l1.02-.43c-.97-2.44-3.29-4.17-6.01-4.17v1.14c2.25,0,4.18,1.43,4.99,3.46Z"/>
      <path class="cls-2" d="m64.94,41.44l-.21.09,1.61,4.21c.15-.19.37-.31.63-.31.03,0,.05.01.08.02l-1.89-4.1-.21.09Z"/>
      <path class="cls-2" d="m67.77,46.25c0-.42-.33-.76-.74-.8l.58,1.26c.09-.13.16-.28.16-.46Z"/>
      <path class="cls-2" d="m66.78,40.89v-1.14c-2.71,0-5.04,1.72-6.01,4.17l1.02.43c.81-2.03,2.73-3.46,4.99-3.46Z"/>
      <path class="cls-2" d="m89.98,17.4h-45.95c-4.04,0-7.32,3.28-7.32,7.32v75.59c0,4.04,3.28,7.32,7.32,7.32h14.05v12.1c.04.53.5.92,1.03.88.47-.04.85-.41.88-.88v-12.1h5.84v12.1c0,.53.43.95.95.95s.95-.43.95-.95v-12.1h5.84v12.1c.04.53.5.92,1.03.88.47-.04.85-.41.88-.88v-12.1h14.5c4.04,0,7.32-3.28,7.32-7.32V24.72c0-4.04-3.28-7.32-7.32-7.32Zm-22.98,19.88c4.06,0,7.35,3.29,7.35,7.35s-3.29,7.35-7.35,7.35-7.35-3.29-7.35-7.35,3.29-7.35,7.35-7.35Zm-9.15,60.03s0,0,0,0,0,0,0,0h0c0,2.93-2.38,5.31-5.31,5.31h0c-2.93,0-5.31-2.39-5.31-5.32,0-2.93,2.39-5.31,5.32-5.31,2.93,0,5.3,2.38,5.3,5.31h0Zm30.39.97h-19.39c-.47-.04-.85-.41-.88-.88-.04-.53.36-.99.88-1.03h19.39c.47.04.85.41.88.88.04.53-.36.99-.88,1.03Zm8.98-9.89c-14.65.02-17.56-1.88-17.56-1.88-10.43-5.49-16.32-3.13-16.32-3.13-1.94-.11-7.17,2.16-7.17,2.16-1.9,2.27-12.66,2.85-12.66,2.85h-6.73v-2.2l7.48-.29c5.38-.27,8.73-1.41,8.73-1.41,1.59-.92,8.78-3.42,8.78-3.42,8.73-1.76,15.53,1.8,15.53,1.8,4.34,3.06,12.73,3.03,12.73,3.03l7.19.16v2.32Z"/>
      <path class="cls-2" d="m52.53,93.91c-1.88,0-3.41,1.53-3.41,3.41s1.53,3.41,3.41,3.41,3.41-1.53,3.41-3.41c0-.9-.36-1.77-1-2.41-.64-.64-1.51-1-2.41-1Z"/>
    </g>
  </g>
</svg>