<?xml version="1.0" encoding="UTF-8"?>
<svg id="Layer_2" data-name="Layer 2" xmlns="http://www.w3.org/2000/svg" viewBox="0 0 134 134">
  <defs>
    <style>
      .cls-1 {
        fill: #fff;
      }

      .cls-2 {
        fill: #073e5f;
      }
    </style>
  </defs>
  <g id="Layer_1-2" data-name="Layer 1">
    <g id="Group_53" data-name="Group 53">
      <g id="Rectangle_38" data-name="Rectangle 38">
        <g>
          <rect class="cls-2" width="134" height="134" rx="15" ry="15"/>
          <rect class="cls-1" x="1.68" y="1.68" width="130.63" height="130.63" rx="13.86" ry="13.86"/>
        </g>
      </g>
    </g>
    <path class="cls-2" d="m60.07,107.88l37.25-53.58c.55-.79-.11-1.85-1.06-1.71l-31.04,4.58c-.76.11-1.39-.57-1.23-1.31l7.36-34.45c.26-1.2-1.35-1.85-2-.81l-37.38,59.98c-.51.82.21,1.85,1.16,1.65l30.09-6.39c.78-.16,1.47.53,1.3,1.3l-6.41,29.88c-.25,1.17,1.29,1.84,1.97.86Z"/>
  </g>
</svg>