<svg width="30" height="31" viewBox="0 0 30 31" fill="none" xmlns="http://www.w3.org/2000/svg">
<path fill-rule="evenodd" clip-rule="evenodd" d="M16.2656 2.45429C15.5975 2.45429 15.0558 1.91259 15.0558 1.24448C15.0558 0.576369 15.5975 0.034668 16.2656 0.034668C19.7802 0.034668 23.2951 1.3756 25.9771 4.05714C27.2874 5.3674 28.2794 6.88531 28.953 8.51143C29.6507 10.1962 29.9996 11.9851 29.9996 13.7683C29.9996 14.4364 29.4579 14.9781 28.7898 14.9781C28.1217 14.9781 27.58 14.4364 27.58 13.7683C27.58 12.2858 27.2941 10.8083 26.7224 9.42797C26.1736 8.10321 25.3551 6.85666 24.2663 5.76753C22.0573 3.55892 19.1616 2.45429 16.2656 2.45429ZM12.3283 17.7062C10.9961 16.3764 9.81527 14.9046 8.81173 13.3176C8.44531 12.7382 8.44901 12.0417 8.82184 11.4663L10.2542 9.25504C10.5596 8.78312 10.6179 8.24445 10.4204 7.71826L7.95685 1.15245C7.57121 0.124333 6.34991 -0.282532 5.42458 0.308721C4.27912 1.04054 3.13333 1.77269 1.98753 2.50451C0.419021 3.50668 -0.30911 5.30841 0.122712 7.11891C1.45256 12.6917 4.35328 17.7065 8.36204 21.6727C12.3283 25.6817 17.3433 28.582 22.9162 29.9118C24.7268 30.344 26.5286 29.6158 27.5307 28.047C28.2626 26.9016 28.9948 25.7555 29.7266 24.6101C30.3179 23.6844 29.911 22.4635 28.8828 22.0779L22.3169 19.6144C21.7907 19.4169 21.252 19.4752 20.78 19.7806L18.5687 21.2129C17.9932 21.5854 17.2968 21.5894 16.7173 21.223C15.1299 20.2192 13.6578 19.0384 12.3283 17.7062ZM16.2656 12.2558C16.4702 12.2558 16.6695 12.2932 16.8505 12.3684C17.0204 12.4388 17.1856 12.5487 17.3356 12.6991C17.4856 12.8491 17.5958 13.0142 17.6663 13.1841C17.7411 13.3652 17.7789 13.5644 17.7789 13.769C17.7789 14.4371 18.3206 14.9788 18.9887 14.9788C19.6568 14.9788 20.1985 14.4371 20.1985 13.769C20.1985 13.2637 20.0981 12.7527 19.8972 12.2676C19.702 11.796 19.4182 11.3602 19.0467 10.9887C18.6752 10.6172 18.2393 10.3337 17.7677 10.1382C17.2823 9.93731 16.7716 9.83686 16.2663 9.83686C15.5982 9.83686 15.0565 10.3786 15.0565 11.0467C15.0561 11.7144 15.5978 12.2558 16.2656 12.2558ZM16.2656 7.35049C17.102 7.35049 17.94 7.51364 18.7281 7.84028C19.4755 8.14973 20.1813 8.61424 20.8009 9.2338C21.4205 9.85337 21.8847 10.5592 22.1945 11.3066C22.5211 12.095 22.6843 12.933 22.6843 13.769C22.6843 14.4344 23.2237 14.9741 23.8894 14.9741C24.5552 14.9741 25.0945 14.4347 25.0945 13.769C25.0945 12.6172 24.8714 11.467 24.4251 10.3897C23.9905 9.341 23.3528 8.36378 22.512 7.52308C21.6713 6.68238 20.6944 6.04428 19.6454 5.61011C18.568 5.1638 17.4178 4.94065 16.266 4.94065C15.6005 4.94065 15.0608 5.47999 15.0608 6.14574C15.0608 6.81149 15.6002 7.35049 16.2656 7.35049Z" fill="#141414"/>
</svg>
