<?xml version="1.0" encoding="UTF-8"?>
<svg id="Layer_2" data-name="Layer 2" xmlns="http://www.w3.org/2000/svg" viewBox="0 0 134 134">
  <defs>
    <style>
      .cls-1 {
        fill: #fff;
      }

      .cls-2 {
        font-family: PatuaOne-Regular, 'Patua One';
        font-size: 11.46px;
      }

      .cls-2, .cls-3 {
        fill: #073e5f;
      }
    </style>
  </defs>
  <g id="Layer_1-2" data-name="Layer 1">
    <g id="Group_53" data-name="Group 53">
      <g id="Rectangle_38" data-name="Rectangle 38">
        <g>
          <rect class="cls-3" width="134" height="134" rx="15" ry="15"/>
          <rect class="cls-1" x="1.68" y="1.68" width="130.63" height="130.63" rx="13.86" ry="13.86"/>
        </g>
      </g>
    </g>
    <g>
      <path class="cls-3" d="m88.01,47.24h-48.16c-.77,0-1.28.51-1.28,1.28v24.59h50.72v-24.59c0-.64-.51-1.28-1.28-1.28Zm-3.33,13.83c0,2.18-1.79,4.1-4.1,4.1h-33.43c-2.18,0-4.1-1.79-4.1-4.1v-4.23c0-2.18,1.79-4.1,4.1-4.1h33.56c2.18,0,4.1,1.79,4.1,4.1v4.23h-.13Z"/>
      <path class="cls-3" d="m80.7,55.31h-1.28v2.43c0,.77-.51,1.28-1.28,1.28s-1.28-.51-1.28-1.28v-2.43h-4.61v2.43c0,.77-.51,1.28-1.28,1.28s-1.28-.51-1.28-1.28v-2.43h-4.48v2.43c0,.77-.51,1.28-1.28,1.28s-1.28-.51-1.28-1.28v-2.43h-4.61v2.43c0,.77-.51,1.28-1.28,1.28s-1.28-.51-1.28-1.28v-2.43h-4.61v2.43c0,.77-.51,1.28-1.28,1.28s-1.28-.51-1.28-1.28v-2.43h-1.28c-.77,0-1.54.64-1.54,1.54v4.23c0,.77.64,1.54,1.54,1.54h33.56c.77,0,1.54-.64,1.54-1.54v-4.23c0-.9-.64-1.54-1.41-1.54Z"/>
      <path class="cls-3" d="m38.57,90.41c0,.38.13.64.38.9l10.5,11.78c.26.26.64.38,1.02.38h26.77c.38,0,.64-.13.9-.38l11.01-11.78c.26-.26.38-.51.38-.9v-14.73h-50.98v14.73Zm36.5-12.42c3.2,0,5.89,2.56,5.89,5.89,0,1.28-.38,2.43-1.02,3.33l2.43,2.56c.51.51.51,1.28,0,1.79s-1.28.51-1.79,0l-2.43-2.56c-.9.51-1.79.77-2.95.77-3.2,0-5.89-2.56-5.89-5.89s2.56-5.89,5.76-5.89Zm-25.36,1.02h6.4c.77,0,1.28.51,1.28,1.28s-.51,1.28-1.28,1.28h-6.4c-.77,0-1.28-.51-1.28-1.28,0-.64.51-1.28,1.28-1.28Zm0,5h14.22c.77,0,1.28.51,1.28,1.28s-.51,1.28-1.28,1.28h-14.22c-.77,0-1.28-.51-1.28-1.28s.51-1.28,1.28-1.28Z"/>
      <circle class="cls-3" cx="75.07" cy="83.75" r="3.33"/>
      <path class="cls-3" d="m43.05,44.68h2.56v-7.43c0-.64-.64-1.28-1.28-1.28h-20.36c-.64,0-1.28.64-1.28,1.28,0,.77.51,1.28,1.28,1.28h19.08s0,6.15,0,6.15Z"/>
      <path class="cls-3" d="m23.96,31.49h27.28v13.19h2.56v-14.47c0-.77-.64-1.28-1.28-1.28h-28.56c-.64,0-1.28.64-1.28,1.28,0,.77.51,1.28,1.28,1.28Z"/>
      <path class="cls-3" d="m103.89,35.97h-20.36c-.64,0-1.28.64-1.28,1.28v7.43h2.56v-6.15h19.08c.77,0,1.28-.51,1.28-1.28,0-.64-.51-1.28-1.28-1.28Z"/>
      <path class="cls-3" d="m76.61,31.49h27.28c.77,0,1.28-.51,1.28-1.28s-.51-1.28-1.28-1.28h-28.56c-.77,0-1.28.51-1.28,1.28v14.47h2.56s0-13.19,0-13.19Z"/>
      <path class="cls-3" d="m67,109.62c0,.64.64,1.28,1.28,1.28h7.17c.77,0,1.28-.64,1.28-1.28v-3.46h-9.73v3.46Z"/>
      <path class="cls-3" d="m51.12,109.62c0,.64.51,1.28,1.28,1.28h7.17c.77,0,1.28-.64,1.28-1.28v-3.46h-9.73v3.46Z"/>
    </g>
    <g>
      <path class="cls-1" d="m77.08,102.36c-.42-.56-10.34-13.75-9.57-20.4.79-6.86,7.05-11.8,13.94-11s11.85,7.03,11.06,13.89c-.77,6.65-13.44,17.23-13.98,17.68l-.8.67-.63-.83Z"/>
      <path class="cls-3" d="m81.33,71.95c-6.33-.73-12.1,3.79-12.83,10.12-.73,6.33,9.38,19.68,9.38,19.68,0,0,12.9-10.69,13.63-17.02s-3.85-12.05-10.18-12.78Z"/>
      <ellipse class="cls-1" cx="79.75" cy="83.4" rx="9.29" ry="9.36" transform="translate(-12.27 153.02) rotate(-83.39)"/>
    </g>
    <text class="cls-2" transform="translate(77.55 87.52)"><tspan x="0" y="0">5</tspan></text>
  </g>
</svg>