<?xml version="1.0" encoding="UTF-8"?>
<svg id="Layer_2" data-name="Layer 2" xmlns="http://www.w3.org/2000/svg" xmlns:xlink="http://www.w3.org/1999/xlink" viewBox="0 0 172.76 38.55">
  <defs>
    <style>
      .cls-1 {
        fill: url(#linear-gradient-2);
      }

      .cls-2 {
        fill: #055d8c;
      }

      .cls-3 {
        fill: #fff;
      }

      .cls-4 {
        fill: #e0e0e0;
      }

      .cls-5 {
        filter: url(#drop-shadow-1);
      }

      .cls-6 {
        filter: url(#drop-shadow-2);
      }

      .cls-7 {
        fill: url(#linear-gradient-5);
      }

      .cls-8 {
        fill: #073e5f;
      }

      .cls-9 {
        fill: url(#linear-gradient-3);
      }

      .cls-10 {
        fill: url(#linear-gradient);
      }

      .cls-11 {
        fill: url(#linear-gradient-4);
      }
    </style>
    <linearGradient id="linear-gradient" x1="8.6" y1="3.75" x2="16.1" y2="3.75" gradientUnits="userSpaceOnUse">
      <stop offset="0" stop-color="#073e5f"/>
      <stop offset="1" stop-color="#055d8c"/>
    </linearGradient>
    <linearGradient id="linear-gradient-2" x1="8.9" y1="6.81" x2="15.8" y2="6.81" xlink:href="#linear-gradient"/>
    <linearGradient id="linear-gradient-3" x1="6.31" y1="16.41" x2="9.45" y2="16.41" gradientTransform="translate(10.68 -1.57) rotate(34.5)" xlink:href="#linear-gradient"/>
    <linearGradient id="linear-gradient-4" x1="5.35" y1="17.21" x2="12.44" y2="17.21" gradientTransform="translate(11.32 -2) rotate(34.5)" xlink:href="#linear-gradient"/>
    <linearGradient id="linear-gradient-5" x1="7.72" y1="18.46" x2="10.85" y2="18.46" gradientTransform="translate(12.09 -2.01) rotate(34.5)" xlink:href="#linear-gradient"/>
    <filter id="drop-shadow-1" filterUnits="userSpaceOnUse">
      <feOffset dx="-1.59" dy=".26"/>
      <feGaussianBlur result="blur" stdDeviation="1.06"/>
      <feFlood flood-color="#10141e" flood-opacity=".35"/>
      <feComposite in2="blur" operator="in"/>
      <feComposite in="SourceGraphic"/>
    </filter>
    <filter id="drop-shadow-2" filterUnits="userSpaceOnUse">
      <feOffset dx="-1.59" dy=".26"/>
      <feGaussianBlur result="blur-2" stdDeviation="1.06"/>
      <feFlood flood-color="#10141e" flood-opacity=".35"/>
      <feComposite in2="blur-2" operator="in"/>
      <feComposite in="SourceGraphic"/>
    </filter>
  </defs>
  <g id="Layer_1-2" data-name="Layer 1">
    <rect class="cls-8" x="0" y="7.32" width="52.98" height="31.23" rx="4.92" ry="4.92"/>
    <path class="cls-8" d="m166.76,38.55H10.56L21.28,7.32l145.48-.2c3.31,0,6,1.84,6,4.11v23.22c0,2.27-2.68,4.11-6,4.11Z"/>
    <g>
      <circle class="cls-10" cx="12.35" cy="3.75" r="3.75"/>
      <circle class="cls-3" cx="12.35" cy="3.75" r="3.1"/>
    </g>
    <g>
      <path class="cls-1" d="m14.81,9.08v-4.74h0c-.03-.96-1.12-1.72-2.46-1.72s-2.43.77-2.46,1.72h0v4.74h-.99v1.92h6.9v-1.92h-.99Z"/>
      <g>
        <rect class="cls-3" x="9.4" y="9.58" width="5.91" height="1.5"/>
        <path class="cls-3" d="m14.29,4.84h0c-.02-.85-.88-1.54-1.93-1.54s-1.91.69-1.93,1.54h0v4.23h3.86v-4.23Z"/>
      </g>
    </g>
    <g>
      <path class="cls-2" d="m21.4,13.29c0-1.33-1.07-2.4-2.4-2.4H5.52c-1.33,0-2.4,1.07-2.4,2.4v16.47h18.29V13.29Z"/>
      <path class="cls-3" d="m20.39,14.33c0-1.24-.95-2.25-2.13-2.25H6.27c-1.18,0-2.13,1.01-2.13,2.25v15.42h16.25v-15.42Z"/>
    </g>
    <g>
      <path class="cls-2" d="m3.16,31.31v2.57c0,1.28,1.04,2.32,2.32,2.32h13.74c1.28,0,2.32-1.04,2.32-2.32v-2.57H3.16Z"/>
      <path class="cls-3" d="m4.22,31.31v2c0,1,.92,1.81,2.05,1.81h12.15c1.13,0,2.05-.81,2.05-1.81v-2H4.22Z"/>
    </g>
    <g>
      <path class="cls-9" d="m6.28,16.11h3.2c.1,0,.18.08.18.18v.23c0,.1-.08.18-.18.18h-3.2c-.11,0-.2-.09-.2-.2v-.21c0-.11.09-.2.2-.2Z" transform="translate(-7.91 7.34) rotate(-34.5)"/>
      <path class="cls-11" d="m4.9,16.92h8.01c.09,0,.16.07.16.16v.28c0,.09-.07.16-.16.16H4.9c-.11,0-.2-.09-.2-.2v-.21c0-.11.09-.2.2-.2Z" transform="translate(-8.19 8.06) rotate(-34.5)"/>
      <path class="cls-7" d="m7.69,18.16h3.2c.1,0,.18.08.18.18v.23c0,.1-.08.18-.18.18h-3.2c-.11,0-.2-.09-.2-.2v-.21c0-.11.09-.2.2-.2Z" transform="translate(-8.82 8.5) rotate(-34.5)"/>
    </g>
    <g>
      <path class="cls-2" d="m14.29,23.2c-.42-.62-.5-.71-.46-.66-3.97.91-4.29,4.05-4.16,4.9.05.34.14.63.24.88.03.08.07.15.11.22-.35-.69-.29-1.43.1-1.92.25-.32.64-.53,1.15-.54,1.34.02,1.87,1.44,1.16,2.61-.44.73-1.15,1.04-1.15,1.04.67.03,1.27-.11,1.39-.16.6-.21,1.23-.56,1.64-1,1.44-1.59,1.06-3.83,0-5.39Z"/>
      <path class="cls-3" d="m13.79,29.02c.97-.72,1.05-3.3-1.24-3.78-1.99-.42-2.97,1.38-2.76,2.67.05.34.19.57.17.52-.28-.65-.2-1.34.16-1.8.25-.32.64-.53,1.15-.54,1.34.02,1.87,1.44,1.16,2.61-.44.73-1.15,1.04-1.15,1.04.9.05,1.74-.18,2.52-.73Z"/>
      <path class="cls-2" d="m9.67,27.44c-.12-.85.19-3.99,4.16-4.9-.04-.05-.59-.79-.91-1.18-.74-.92-1.37-1.62-1.37-1.62,0,0-1.66,1.81-2.77,3.46-1.06,1.56-1.44,3.8,0,5.39.52.57,1.51,1.11,2.48,1.16,0,0-1.34-.49-1.6-2.31Z"/>
    </g>
    <g class="cls-5">
      <path class="cls-4" d="m30.6,33.33c-2.64,0-4.44-.79-5.33-2.36-.88-1.53-.9-3.89-.08-7.2.81-3.24,2.14-5.67,3.95-7.25,1.83-1.59,4.02-2.39,6.51-2.39s4.43.59,5.76,1.75l.24.21-.22.88c-.09.34-.27.86-.58,1.59-.31.74-.65,1.36-1.01,1.83l-.16.21h-3.03l-.11-.38c-.14-.48-.16-1.11-.06-1.92-.51-.15-1.07-.22-1.68-.22-1.02,0-1.9.38-2.66,1.18-.79.82-1.46,2.3-1.99,4.41-.8,3.21-.44,4.56,0,5.12.3.38.76.57,1.4.57.76,0,1.47-.11,2.13-.31l.54-2.18c-.61-.28-1.01-.61-1.23-1.03l-.11-.21.98-2.59h6.98l-.35,2.81-.14.13c-.3.28-.73.55-1.32.8l-1.17,4.7-.18.11c-1.02.63-2.09,1.08-3.18,1.34-1.08.26-2.4.39-3.9.39Z"/>
      <path class="cls-3" d="m34.81,17.56c-1.17,0-2.18.45-3.04,1.34-.86.89-1.57,2.44-2.12,4.65-1.05,4.23-.42,6.35,1.91,6.35.93,0,1.78-.15,2.58-.44l.72-2.9c-.72-.26-1.18-.57-1.38-.95l.76-2.03h6.01l-.25,2.03c-.29.27-.76.54-1.41.8l-1.19,4.75c-.97.6-1.98,1.02-3.03,1.27-1.05.25-2.31.37-3.78.37-2.45,0-4.07-.7-4.87-2.09-.8-1.4-.81-3.67-.02-6.81.78-3.14,2.04-5.47,3.78-6.98,1.74-1.51,3.79-2.26,6.16-2.26s4.18.54,5.42,1.62c-.03.1-.07.3-.15.59-.07.29-.26.79-.55,1.49-.3.7-.61,1.28-.94,1.72h-2.36c-.14-.48-.13-1.19.02-2.13-.67-.26-1.43-.39-2.27-.39Z"/>
      <path class="cls-4" d="m50.03,33.13l.37-2.91.13-.13c.27-.27.68-.52,1.24-.75l-.09-1.27h-4.34l-.74,1.33c.37.23.65.48.84.78l.14.22-1.01,2.73h-6.83l.38-2.91.13-.13c.44-.43,1.09-.77,1.98-1.04l8.66-14.83h4.31l1.43,14.99c.6.28,1.01.6,1.25.99l.13.22-1,2.72h-6.98Zm1.43-8.48l-.16-2.57c-.03-.36-.04-.72-.05-1.06-.19.4-.41.81-.64,1.24l-1.35,2.4h2.2Z"/>
      <path class="cls-3" d="m54.73,14.74l1.42,14.83c.66.26,1.09.56,1.29.9l-.79,2.13h-6.01l.27-2.13c.27-.27.75-.53,1.43-.77l-.16-2.16h-5.14l-1.16,2.08c.54.24.91.52,1.12.85l-.79,2.13h-5.86l.27-2.13c.41-.39,1.06-.72,1.96-.98l8.61-14.75h3.52Zm-3.03,3.6c-.26,1.04-.78,2.26-1.55,3.65l-1.8,3.19h3.67l-.19-3.13c-.1-1.2-.05-2.29.15-3.26l.08-.44h-.36Z"/>
      <path class="cls-4" d="m65.33,33.33c-1.07,0-2.15-.14-3.21-.42-1.09-.28-1.97-.69-2.63-1.22l-.27-.21.23-.92c.08-.32.27-.83.58-1.57.31-.74.65-1.36,1.01-1.83l.16-.21h3.11l.1.39c.14.52.15,1.16.04,1.94.4.13.87.19,1.4.19.7,0,1.3-.16,1.83-.49.49-.3.8-.73.94-1.3.07-.28.11-.51.11-.69,0-.03-.01-.14-.18-.35-.14-.17-.4-.32-.75-.44l-2.44-.77c-2.76-.85-3.84-2.85-3.11-5.77.42-1.68,1.38-3.04,2.84-4.05,1.45-.99,3.16-1.49,5.08-1.49s3.69.44,5.3,1.3l.36.19-.25.99c-.08.32-.27.83-.58,1.57-.31.74-.65,1.36-1.01,1.83l-.16.21h-3.05l-.14-.31c-.2-.43-.24-1.04-.13-1.85-.37-.07-.76-.1-1.16-.1-.53,0-.97.13-1.35.38-.36.24-.58.58-.7,1.03-.07.29-.13.69.03.93.06.1.31.35,1.22.63l2.13.67c1.25.39,2.19,1.03,2.8,1.88.63.89.74,2.16.34,3.79-.47,1.87-1.52,3.37-3.14,4.45-1.59,1.07-3.4,1.61-5.36,1.61Z"/>
      <path class="cls-3" d="m71.14,17.67c-.54-.15-1.13-.23-1.77-.23s-1.18.16-1.65.48c-.46.32-.77.76-.91,1.34-.14.57-.11,1.02.1,1.35.21.33.71.61,1.51.85l2.12.67c1.14.36,1.98.92,2.52,1.68.54.76.62,1.88.26,3.35-.44,1.75-1.41,3.13-2.92,4.14s-3.2,1.52-5.07,1.52c-1.03,0-2.05-.13-3.07-.4-1.02-.27-1.83-.64-2.43-1.12.03-.1.07-.3.15-.59.07-.29.26-.79.55-1.49.29-.7.61-1.28.94-1.72h2.44c.14.53.13,1.24-.04,2.13.54.26,1.2.39,2,.39s1.5-.19,2.11-.57c.61-.38,1-.92,1.17-1.62.08-.33.12-.6.12-.81,0-.21-.1-.45-.3-.69-.2-.25-.53-.45-.99-.6l-2.45-.77c-2.5-.77-3.41-2.48-2.75-5.14.39-1.56,1.26-2.8,2.63-3.74,1.36-.93,2.96-1.4,4.78-1.4s3.51.41,5.05,1.23c-.03.1-.07.3-.15.59-.07.29-.26.79-.55,1.49-.3.7-.61,1.28-.94,1.72h-2.44c-.19-.41-.19-1.09,0-2.03Z"/>
    </g>
    <g class="cls-6">
      <path class="cls-4" d="m74.83,33.13l.37-2.91.13-.13c.32-.31.83-.6,1.55-.87l2.75-11.04c-.53-.27-.87-.58-1.05-.94l-.1-.2,1-2.69h6.2c2.09,0,3.55.13,4.46.39.96.28,1.61.62,1.99,1.04.81.89,1,2.22.57,3.95-.28,1.12-1.06,2.19-2.32,3.18,1.11.99,1.41,2.54.89,4.63-.46,1.84-1.42,3.23-2.87,4.14-1.4.88-3.3,1.37-5.63,1.45h-.01s-7.93,0-7.93,0Zm7.93-3.86c1.08,0,1.93-.15,2.54-.46.54-.27.9-.76,1.08-1.5.12-.48.2-1.12-.1-1.44-.15-.16-.58-.43-1.79-.43h-1.87l-.95,3.82h1.09Zm2.25-7.68c.76,0,1.36-.18,1.85-.56.48-.37.78-.81.91-1.34.08-.33.14-.77-.04-1.01-.16-.22-.37-.34-.65-.39-.38-.06-.97-.1-1.74-.1h-.92l-.84,3.39h1.43Z"/>
      <path class="cls-3" d="m85.68,14.87c2.02,0,3.46.12,4.31.37.85.25,1.44.54,1.74.89.69.75.83,1.91.45,3.47-.29,1.16-1.19,2.27-2.7,3.31,1.39.81,1.82,2.3,1.27,4.5-.43,1.71-1.31,2.99-2.63,3.82-1.33.83-3.12,1.29-5.37,1.37h-7.32l.27-2.13c.3-.29.84-.57,1.62-.85l2.93-11.74c-.64-.26-1.04-.55-1.2-.87l.79-2.13h5.83Zm-1.19,10.05h-2.29l-1.22,4.88h1.77c1.16,0,2.09-.17,2.77-.51.68-.34,1.14-.96,1.36-1.85.22-.89.15-1.53-.23-1.93-.37-.39-1.1-.59-2.18-.59Zm.86-7.25h-1.34l-1.11,4.45h2.11c.87,0,1.6-.22,2.17-.67.57-.45.94-.99,1.1-1.63s.12-1.13-.13-1.45c-.24-.33-.57-.52-.98-.59-.41-.07-1.02-.1-1.82-.1Z"/>
      <path class="cls-4" d="m100.05,33.33c-2.62,0-4.43-.79-5.39-2.36-.94-1.54-1-3.91-.17-7.23.81-3.23,2.12-5.67,3.89-7.23,1.79-1.58,4.01-2.38,6.59-2.38s4.47.75,5.44,2.24c.97,1.48,1.04,3.81.21,7.12-.8,3.22-2.13,5.69-3.95,7.33-1.84,1.66-4.07,2.5-6.62,2.5Zm3.95-15.24c-1,0-1.85.38-2.59,1.17-.77.82-1.43,2.31-1.96,4.42-.52,2.09-.6,3.61-.25,4.51.32.81.89,1.18,1.81,1.18.99,0,1.85-.41,2.62-1.25.81-.88,1.48-2.4,2.01-4.51.59-2.39.58-4.07-.05-4.88-.33-.42-.85-.63-1.6-.63Z"/>
      <path class="cls-3" d="m100.05,32.8c-2.43,0-4.08-.7-4.93-2.11-.86-1.4-.89-3.68-.11-6.82.78-3.14,2.03-5.46,3.73-6.96,1.7-1.5,3.78-2.25,6.24-2.25s4.12.67,5,2,.92,3.57.14,6.71c-.78,3.13-2.05,5.49-3.79,7.07-1.75,1.58-3.84,2.36-6.27,2.36Zm.97-13.9c-.84.89-1.53,2.44-2.08,4.65-.55,2.21-.63,3.82-.23,4.83.4,1.01,1.17,1.52,2.31,1.52s2.14-.48,3.01-1.43c.87-.95,1.58-2.53,2.13-4.74,1.03-4.11.3-6.17-2.16-6.17-1.15,0-2.14.45-2.98,1.34Z"/>
      <path class="cls-4" d="m110.75,33.13l.37-2.91.13-.13c.32-.31.83-.6,1.55-.87l2.75-11.04c-.53-.27-.87-.58-1.05-.94l-.1-.2,1-2.69h6.98l-.38,2.92-.14.13c-.36.33-.87.62-1.54.88l-2.76,11.05c.5.26.84.55,1.03.85l.14.22-1.01,2.72h-6.98Z"/>
      <path class="cls-3" d="m121.78,14.87l-.28,2.13c-.36.33-.9.62-1.63.87l-2.93,11.74c.62.27,1.02.56,1.2.85l-.79,2.13h-6.01l.27-2.13c.3-.29.84-.57,1.62-.85l2.93-11.74c-.64-.26-1.04-.55-1.2-.87l.79-2.13h6.01Z"/>
      <path class="cls-4" d="m120.77,33.13l.37-2.91.13-.13c.32-.31.83-.6,1.55-.87l2.75-11.04c-.53-.27-.87-.58-1.05-.94l-.1-.2,1-2.69h6.98l-.38,2.92-.14.13c-.36.33-.87.62-1.54.88l-2.74,10.99h3.06c.44-.82.91-1.41,1.43-1.8l.17-.13,2.65.33-1.36,5.45h-12.78Z"/>
      <path class="cls-3" d="m133.14,32.6h-11.77l.27-2.13c.3-.29.84-.57,1.62-.85l2.93-11.74c-.64-.26-1.04-.55-1.2-.87l.79-2.13h6.01l-.27,2.13c-.36.33-.9.62-1.63.87l-2.97,11.92h4.06c.44-.89.92-1.52,1.42-1.9l1.84.23-1.11,4.47Z"/>
      <path class="cls-4" d="m135.52,33.13l.37-2.91.13-.13c.32-.31.83-.6,1.55-.87l2.75-11.04c-.53-.27-.87-.58-1.05-.94l-.1-.2,1-2.69h12.76l-1.37,5.48-2.59.31-.18-.2c-.33-.37-.53-.94-.59-1.73h-3.09l-.84,3.36h2.61c.31-.44.6-.76.88-.97l.17-.13,2.38.27-1.37,5.51-2.28.28-.18-.17c-.21-.2-.36-.5-.46-.93h-2.71l-.96,3.85h3.21c.44-.82.91-1.41,1.43-1.8l.17-.13,2.65.33-1.36,5.45h-12.94Z"/>
      <path class="cls-3" d="m148.04,32.6h-11.92l.27-2.13c.3-.29.84-.57,1.62-.85l2.93-11.74c-.64-.26-1.04-.55-1.2-.87l.79-2.13h11.72l-1.11,4.47-1.96.23c-.31-.34-.47-.98-.48-1.9h-4.01l-1.1,4.42h3.57c.33-.51.64-.87.91-1.08l1.57.18-1.14,4.57-1.67.21c-.18-.17-.3-.53-.37-1.08h-3.57l-1.22,4.91h4.21c.44-.89.92-1.52,1.42-1.9l1.84.23-1.11,4.47Z"/>
      <path class="cls-4" d="m161.82,33.13l-1.48-6.71c-.08-.45-.2-.54-.2-.54h-1.25s-.8,3.2-.8,3.2c1.05.3,1.66.66,1.91,1.14l.11.21-1,2.7h-7.91l.37-2.91.13-.13c.32-.31.83-.6,1.55-.87l2.75-11.04c-.53-.27-.87-.58-1.05-.94l-.1-.2,1-2.69h6.92c2.54.04,4.29.45,5.37,1.26,1.16.87,1.48,2.42.94,4.59-.32,1.27-.99,2.35-1.99,3.2-.71.6-1.5,1.11-2.37,1.5.36.31.6.67.72,1.06l.92,3.32c.72.3,1.19.66,1.43,1.09l.12.22-.97,2.55h-5.13Zm-1.18-11.11c1.07,0,1.91-.16,2.49-.46.53-.28.88-.79,1.07-1.55.25-1.02-.09-1.28-.2-1.36-.27-.2-.85-.45-2.09-.45h-1.1l-.95,3.82h.79Z"/>
      <path class="cls-3" d="m168.59,20.06c-.29,1.16-.9,2.14-1.82,2.93-.93.79-1.99,1.39-3.18,1.8.77.36,1.22.8,1.37,1.31l.99,3.57c.74.27,1.21.59,1.41.95l-.75,1.98h-4.34l-1.39-6.3c-.12-.63-.35-.95-.71-.95h-1.67l-1.02,4.11c1.18.27,1.88.61,2.09,1l-.79,2.13h-6.94l.27-2.13c.3-.29.84-.57,1.62-.85l2.93-11.74c-.64-.26-1.04-.55-1.2-.87l.79-2.13h6.55c2.39.03,4.07.42,5.06,1.16.98.74,1.23,2.08.74,4.03Zm-6.68-2.39h-1.52l-1.22,4.88h1.46c1.16,0,2.08-.18,2.74-.53.66-.35,1.11-.98,1.33-1.89.23-.91.09-1.55-.4-1.91-.49-.37-1.29-.55-2.41-.55Z"/>
    </g>
  </g>
</svg>