<?xml version="1.0" encoding="UTF-8"?>
<svg id="Layer_2" data-name="Layer 2" xmlns="http://www.w3.org/2000/svg" viewBox="0 0 134 134">
  <defs>
    <style>
      .cls-1 {
        fill: #fff;
      }

      .cls-2 {
        fill: #073e5f;
      }
    </style>
  </defs>
  <g id="Layer_1-2" data-name="Layer 1">
    <g id="Group_53" data-name="Group 53">
      <g id="Rectangle_38" data-name="Rectangle 38">
        <g>
          <rect class="cls-2" width="134" height="134" rx="15" ry="15"/>
          <rect class="cls-1" x="1.68" y="1.68" width="130.63" height="130.63" rx="13.86" ry="13.86"/>
        </g>
      </g>
    </g>
    <polygon class="cls-2" points="101 14.86 90.22 14.86 90.22 25.98 101 33.59 101 14.86"/>
    <path class="cls-2" d="m60.29,10.83L8.38,49.19h13.87c1.37,0,2.47,1.11,2.47,2.47v57.74h5.59v-36.81c0-1.37,1.11-2.47,2.47-2.47h26.18c1.37,0,2.47,1.11,2.47,2.47v36.81h37.08v-57.74c0-1.37,1.11-2.47,2.47-2.47h13.62L60.29,10.83Z"/>
    <g>
      <path class="cls-2" d="m114.87,65.27c0-.59.48-1.07,1.07-1.07h6.81c.59,0,1.07.48,1.07,1.07,0,.59-.48,1.07-1.07,1.07h-6.81c-.59,0-1.07-.48-1.07-1.07Z"/>
      <path class="cls-2" d="m114.87,109.5c0-.59.48-1.07,1.07-1.07h6.81c.59,0,1.07.48,1.07,1.07,0,.59-.48,1.07-1.07,1.07h-6.81c-.59,0-1.07-.48-1.07-1.07Z"/>
      <path class="cls-2" d="m118.31,109.5v-44.23c0-.59.48-1.07,1.07-1.07s1.07.48,1.07,1.07v44.23c0,.59-.48,1.07-1.07,1.07s-1.07-.48-1.07-1.07Z"/>
      <g>
        <path class="cls-2" d="m108.74,65.27c0-.59.48-1.07,1.07-1.07h1.61c.59,0,1.07.48,1.07,1.07s-.48,1.07-1.07,1.07h-1.61c-.59,0-1.07-.48-1.07-1.07Z"/>
        <path class="cls-2" d="m98.64,65.26c0,.59.48,1.07,1.07,1.07h2.54c.59,0,1.07-.48,1.07-1.07s-.48-1.07-1.07-1.07h-2.58c-.57.02-1.03.5-1.03,1.07Zm6.09-1.07c-.59,0-1.07.48-1.07,1.07,0,.59.48,1.07,1.07,1.07h2.54c.59,0,1.07-.48,1.07-1.07,0-.59-.48-1.07-1.07-1.07h-2.54Z"/>
        <path class="cls-2" d="m94.45,65.27c0-.59.48-1.07,1.07-1.07h1.61c.59,0,1.07.48,1.07,1.07,0,.59-.48,1.07-1.07,1.07h-1.61c-.59,0-1.07-.48-1.07-1.07Z"/>
      </g>
      <path class="cls-2" d="m106.94,109.5c0-.59.48-1.07,1.07-1.07h3.21c.59,0,1.07.48,1.07,1.07,0,.59-.48,1.07-1.07,1.07h-3.21c-.59,0-1.07-.48-1.07-1.07Z"/>
    </g>
    <g>
      <path class="cls-1" d="m95.67,82.34v.03c0,.25-.01.5-.04.75-.02.18.11.35.29.37.18.02.35-.11.37-.29h0c.03-.27.05-.55.05-.82v-.03c0-.18-.15-.33-.33-.33s-.33.15-.33.33h0Zm-.39-2.19c.09.23.16.47.22.71.04.18.22.28.4.24.17-.04.28-.22.24-.39-.06-.27-.14-.53-.24-.79-.05-.17-.24-.27-.41-.21-.17.05-.27.24-.21.41,0,0,0,.02.01.03h0Zm-1.12-1.92c.16.19.31.39.45.6.1.15.31.19.46.09s.19-.31.09-.46c-.15-.23-.32-.45-.49-.66-.11-.14-.32-.17-.46-.06s-.17.32-.06.46c0,0,.01.02.02.03h0Zm-1.71-1.43c.22.12.42.26.62.41.15.11.35.08.46-.07.11-.15.08-.35-.07-.46-.22-.16-.45-.31-.69-.45-.16-.09-.36-.04-.45.12-.09.16-.04.36.12.45h0Zm-2.09-.76c.24.04.49.1.73.16.17.06.36-.03.42-.2.06-.17-.03-.36-.2-.42,0,0-.02,0-.03,0-.26-.08-.53-.14-.8-.19-.18-.03-.35.1-.37.28-.02.17.09.33.26.37h0Zm-2.23.03c.24-.04.49-.08.75-.1.18-.02.32-.17.3-.36s-.17-.32-.36-.3c-.28.02-.55.06-.81.11-.18.03-.3.2-.27.38.03.18.2.3.38.27h0Zm-2.11.74c.22-.12.44-.23.67-.33.17-.07.25-.26.18-.43s-.26-.25-.43-.18h0c-.25.1-.5.22-.74.36-.16.09-.22.29-.13.45.09.16.29.22.45.13h0Zm-1.7,1.42c.16-.19.33-.37.51-.54.13-.13.13-.34,0-.46-.12-.12-.32-.13-.45-.01-.2.19-.39.39-.56.6-.11.14-.09.35.05.46.14.11.34.09.46-.04h0Zm-1.08,1.94c.08-.23.18-.47.28-.69.08-.16,0-.36-.15-.44s-.36,0-.44.15h0c-.12.25-.22.5-.31.76-.07.17.01.36.18.43.17.07.36-.01.43-.18,0-.01,0-.02.01-.03Zm-.36,2.21v-.02c0-.24.01-.49.04-.73.02-.18-.11-.34-.29-.36-.18-.02-.34.11-.36.29-.03.27-.04.53-.04.8v.02c0,.18.15.33.33.33s.33-.15.33-.33h0Zm.37,2.2c-.08-.24-.15-.48-.2-.72-.04-.18-.22-.29-.39-.25-.18.04-.29.22-.25.39.06.27.14.53.22.79.06.17.25.26.42.2.17-.06.26-.25.2-.42h0Zm1.09,1.94c-.16-.19-.3-.39-.44-.6-.1-.15-.3-.2-.45-.1-.15.1-.2.3-.1.45.15.23.32.45.49.67.12.14.32.16.46.04.14-.12.16-.32.04-.46h0Zm1.71,1.41c-.22-.12-.43-.25-.63-.4-.15-.1-.36-.06-.45.1-.09.14-.06.33.07.43.22.16.46.31.7.44.16.09.36.04.45-.11.09-.16.04-.36-.11-.45,0,0-.02,0-.02-.01h0Zm2.11.73c-.25-.04-.49-.1-.73-.16-.17-.05-.36.05-.41.23s.05.36.23.41h0c.26.07.52.13.8.18.18.03.35-.09.38-.27.03-.18-.09-.35-.27-.38,0,0,0,0,0,0h0Zm2.23.02c-.24.04-.49.07-.74.09-.18.01-.32.17-.31.35.01.18.17.32.35.31.28-.02.55-.05.82-.1.18-.03.3-.2.27-.38-.03-.18-.2-.3-.38-.27h0Zm2.09-.76c-.22.12-.44.23-.67.33-.17.07-.24.27-.16.43.07.16.26.24.43.17.25-.11.5-.23.73-.37.16-.08.22-.28.14-.44-.08-.16-.28-.22-.44-.14,0,0-.02,0-.02.01h0Zm1.7-1.43c-.16.19-.33.37-.51.54-.13.13-.13.34,0,.46.12.12.32.13.45.01.2-.19.39-.39.56-.6.12-.14.1-.35-.04-.46-.14-.12-.35-.1-.46.04Zm1.11-1.93c-.08.23-.18.46-.3.68-.08.16-.02.36.15.44.16.08.36.02.44-.15h0c.12-.25.23-.5.33-.76.07-.17-.02-.36-.19-.43-.17-.07-.36.02-.43.19,0,0,0,.01,0,.02h0Z"/>
      <g>
        <path class="cls-1" d="m93.5,82.33h-.7c0,1.95-1.58,3.52-3.52,3.52s-3.52-1.58-3.52-3.52,1.58-3.52,3.52-3.52c.93,0,1.83.37,2.49,1.03.66.66,1.03,1.56,1.03,2.49h1.41c0-2.72-2.21-4.93-4.93-4.93-2.72,0-4.93,2.21-4.93,4.93,0,2.72,2.21,4.93,4.93,4.93,1.31,0,2.56-.52,3.48-1.44.93-.93,1.45-2.18,1.45-3.49h-.7Z"/>
        <circle class="cls-2" cx="89.33" cy="82.39" r="2.11"/>
        <path class="cls-1" d="m91.44,82.39h-.35c0,.97-.79,1.76-1.76,1.76-.97,0-1.76-.79-1.76-1.76,0-.97.79-1.76,1.76-1.76.47,0,.91.19,1.24.51.33.33.51.78.51,1.24h.7c0-1.36-1.1-2.46-2.46-2.46s-2.46,1.1-2.46,2.46c0,1.36,1.1,2.46,2.46,2.46,1.36,0,2.46-1.1,2.46-2.46h0s-.35,0-.35,0Z"/>
        <polyline class="cls-1" points="88.61 78.59 88.61 80.7 90.02 80.7 90.02 78.59"/>
        <polyline class="cls-1" points="88.61 84.69 88.61 87.04 90.02 87.04 90.02 84.69"/>
      </g>
    </g>
    <rect class="cls-1" x="52.3" y="29.11" width="6.8" height="6.8"/>
    <rect class="cls-1" x="63.87" y="29.11" width="6.8" height="6.8"/>
    <rect class="cls-1" x="52.3" y="40.84" width="6.8" height="6.8"/>
    <rect class="cls-1" x="63.87" y="40.84" width="6.8" height="6.8"/>
  </g>
</svg>