<?xml version="1.0" encoding="UTF-8"?>
<svg id="Layer_2" data-name="Layer 2" xmlns="http://www.w3.org/2000/svg" viewBox="0 0 134 134">
  <defs>
    <style>
      .cls-1 {
        fill: #fff;
      }

      .cls-2 {
        fill: #073e5f;
      }
    </style>
  </defs>
  <g id="Layer_1-2" data-name="Layer 1">
    <g id="Group_53" data-name="Group 53">
      <g id="Rectangle_38" data-name="Rectangle 38">
        <g>
          <rect class="cls-2" width="134" height="134" rx="15" ry="15"/>
          <rect class="cls-1" x="1.68" y="1.68" width="130.63" height="130.63" rx="13.86" ry="13.86"/>
        </g>
      </g>
    </g>
    <g>
      <path class="cls-2" d="m33.36,75.07l-.02-25.32-7.16-.03c-5.56-.02-7.15-.05-7.12-.14.02-.07,11.21-5.23,24.86-11.49l24.82-11.37,24.82,11.37c13.65,6.25,24.84,11.42,24.86,11.49.03.09-1.55.12-7.07.14l-7.11.03-.02,25.32-.02,25.32H33.39l-.02-25.32h0Zm23.54,12.55l-.02-12.67h-17.58l-.02,12.67-.02,12.67h17.68l-.02-12.67Zm43.33-4.32v-8.35h-21.39l-.03,8.25c-.01,4.54,0,8.31.02,8.37.04.1,2.23.12,10.72.1l10.67-.02v-8.35h0Z"/>
      <g>
        <path class="cls-1" d="m74.98,80.01v.03c0,.25-.01.5-.04.75-.02.18.11.35.29.37.18.02.35-.11.37-.29h0c.03-.27.05-.55.05-.83v-.03c0-.18-.15-.33-.33-.33s-.33.15-.33.33h0Zm-.4-2.21c.09.24.16.48.22.72.04.18.23.28.4.24.17-.04.28-.22.24-.39-.06-.27-.15-.53-.24-.79-.06-.17-.24-.27-.42-.22-.17.06-.27.24-.22.42,0,0,0,.02.01.03h0Zm-1.13-1.94c.16.19.31.39.45.6.1.15.31.19.46.09s.19-.31.09-.46c-.15-.23-.32-.45-.5-.66-.11-.15-.32-.17-.46-.06s-.17.32-.06.46c0,0,.01.02.02.03h0Zm-1.73-1.44c.22.13.43.26.63.41.15.11.35.08.46-.07.11-.15.08-.35-.07-.46-.22-.16-.45-.32-.69-.45-.16-.09-.36-.04-.45.12-.09.16-.04.36.12.45h0Zm-2.11-.76c.25.04.49.1.73.17.17.06.36-.03.42-.2.06-.17-.03-.36-.2-.42,0,0-.02,0-.03,0-.27-.08-.54-.14-.81-.19-.18-.03-.35.1-.37.28-.02.17.09.34.26.37h0Zm-2.25.03c.24-.04.5-.08.75-.1.18-.02.32-.18.3-.36s-.18-.32-.36-.3c-.28.02-.55.06-.81.11-.18.03-.3.2-.27.38.03.18.2.3.38.27h0Zm-2.13.74c.22-.12.44-.23.68-.33.17-.07.25-.26.18-.43s-.26-.25-.43-.18h0c-.26.11-.51.23-.75.36-.16.09-.22.29-.13.45.09.16.29.22.45.13h0Zm-1.71,1.43c.16-.19.33-.38.51-.55.13-.13.13-.34,0-.47-.12-.12-.32-.13-.45-.01-.2.19-.39.39-.57.61-.12.14-.09.35.05.47.14.11.35.09.46-.05h0Zm-1.09,1.96c.08-.24.18-.47.28-.7.08-.17,0-.36-.16-.44s-.36,0-.44.16h0c-.12.25-.22.51-.31.77-.07.17.01.36.18.43.17.07.36-.01.43-.18,0-.01,0-.02.01-.03Zm-.36,2.23v-.02c0-.25.01-.49.04-.74.02-.18-.11-.35-.3-.37-.18-.02-.35.11-.37.3-.03.27-.04.54-.04.81v.02c0,.18.15.33.33.33s.33-.15.33-.33h0Zm.37,2.22c-.08-.24-.15-.48-.21-.73-.04-.18-.22-.29-.4-.25-.18.04-.29.22-.25.4.06.27.14.54.23.8.06.17.25.26.42.2.17-.06.26-.25.2-.42h0Zm1.09,1.96c-.16-.19-.31-.39-.44-.61-.1-.15-.3-.2-.46-.1-.15.1-.2.3-.1.46.15.23.32.46.5.67.12.14.33.16.47.04.14-.12.16-.33.04-.47h0Zm1.72,1.42c-.22-.12-.43-.25-.63-.4-.15-.1-.36-.06-.46.1-.09.14-.06.33.07.44.22.16.46.31.7.45.16.09.36.04.45-.11.09-.16.04-.36-.11-.45,0,0-.02,0-.02-.01h0Zm2.13.74c-.25-.04-.49-.1-.74-.17-.18-.05-.36.05-.41.23s.05.36.23.41h0c.26.07.52.13.8.18.18.03.35-.09.38-.27.03-.18-.09-.35-.27-.38,0,0,0,0,0,0h0Zm2.25.02c-.25.04-.5.07-.75.09-.18.01-.32.17-.31.35.01.18.17.32.35.31.28-.02.55-.05.83-.1.18-.03.3-.2.27-.38-.03-.18-.2-.3-.38-.27h0Zm2.11-.77c-.22.12-.44.23-.67.33-.17.07-.24.27-.17.44.07.16.26.24.43.17.25-.11.5-.23.74-.37.16-.08.22-.28.14-.45-.08-.16-.28-.22-.45-.14,0,0-.02,0-.02.01h0Zm1.71-1.44c-.16.19-.33.38-.51.55-.13.13-.13.34,0,.47.12.12.32.13.45.01.2-.19.39-.39.57-.6.12-.14.1-.35-.04-.47-.14-.12-.35-.1-.47.04Zm1.12-1.94c-.09.24-.19.47-.3.69-.08.16-.02.36.15.45.16.08.36.02.45-.15h0c.12-.25.24-.5.33-.76.07-.17-.02-.36-.19-.43-.17-.07-.36.02-.43.19,0,0,0,.01,0,.02h0Z"/>
        <g>
          <path class="cls-1" d="m72.79,79.99h-.71c0,1.96-1.59,3.55-3.55,3.55s-3.55-1.59-3.55-3.55,1.59-3.55,3.55-3.55c.94,0,1.84.37,2.51,1.04.67.67,1.04,1.57,1.04,2.51h1.42c0-2.75-2.23-4.97-4.98-4.97-2.75,0-4.97,2.23-4.97,4.98,0,2.75,2.23,4.97,4.98,4.97,1.32,0,2.58-.52,3.51-1.45.93-.93,1.46-2.2,1.46-3.52h-.71Z"/>
          <circle class="cls-2" cx="68.59" cy="80.05" r="2.13"/>
          <path class="cls-1" d="m70.72,80.05h-.36c0,.98-.79,1.77-1.77,1.77-.98,0-1.77-.79-1.77-1.77,0-.98.79-1.77,1.77-1.77.47,0,.92.19,1.25.52.33.33.52.78.52,1.25h.71c0-1.37-1.11-2.48-2.48-2.48s-2.48,1.11-2.48,2.48c0,1.37,1.11,2.48,2.48,2.48,1.37,0,2.48-1.11,2.48-2.48h0s-.35,0-.35,0Z"/>
          <polyline class="cls-1" points="67.87 76.22 67.87 78.35 69.29 78.35 69.29 76.22"/>
          <polyline class="cls-1" points="67.87 82.38 67.87 84.75 69.29 84.75 69.29 82.38"/>
        </g>
      </g>
      <g>
        <rect class="cls-1" x="60.13" y="38.62" width="6.8" height="6.8"/>
        <rect class="cls-1" x="71.69" y="38.62" width="6.8" height="6.8"/>
        <rect class="cls-1" x="60.13" y="50.35" width="6.8" height="6.8"/>
        <rect class="cls-1" x="71.69" y="50.35" width="6.8" height="6.8"/>
      </g>
    </g>
  </g>
</svg>