<?xml version="1.0" encoding="UTF-8"?>
<svg id="Layer_2" data-name="Layer 2" xmlns="http://www.w3.org/2000/svg" viewBox="0 0 134 134">
  <defs>
    <style>
      .cls-1 {
        fill: #fff;
      }

      .cls-2 {
        fill: #073e5f;
      }
    </style>
  </defs>
  <g id="Layer_1-2" data-name="Layer 1">
    <g id="Group_53" data-name="Group 53">
      <g id="Rectangle_38" data-name="Rectangle 38">
        <g>
          <rect class="cls-2" width="134" height="134" rx="15" ry="15"/>
          <rect class="cls-1" x="1.68" y="1.68" width="130.63" height="130.63" rx="13.86" ry="13.86"/>
        </g>
      </g>
    </g>
    <polygon class="cls-2" points="101 14.86 90.22 14.86 90.22 25.98 101 33.59 101 14.86"/>
    <path class="cls-2" d="m60.29,10.9L8.38,49.27h13.87c1.37,0,2.47,1.11,2.47,2.47v57.74h5.59v-36.81c0-1.37,1.11-2.47,2.47-2.47h26.18c1.37,0,2.47,1.11,2.47,2.47v36.81h37.08v-57.74c0-1.37,1.11-2.47,2.47-2.47h13.62L60.29,10.9Z"/>
    <g>
      <path class="cls-2" d="m108.49,72.34c0-.49.4-.9.9-.9h5.7c.49,0,.9.4.9.9s-.4.9-.9.9h-5.7c-.49,0-.9-.4-.9-.9Z"/>
      <path class="cls-2" d="m108.49,109.34c0-.49.4-.9.9-.9h5.7c.49,0,.9.4.9.9,0,.49-.4.9-.9.9h-5.7c-.49,0-.9-.4-.9-.9Z"/>
      <path class="cls-2" d="m111.36,109.34v-37c0-.49.4-.9.9-.9s.9.4.9.9v37c0,.49-.4.9-.9.9s-.9-.4-.9-.9Z"/>
      <g>
        <path class="cls-2" d="m103.36,72.34c0-.49.4-.9.9-.9h1.34c.49,0,.9.4.9.9,0,.49-.4.9-.9.9h-1.34c-.49,0-.9-.4-.9-.9Z"/>
        <path class="cls-2" d="m94.91,72.33c0,.49.4.9.9.9h2.12c.49,0,.9-.4.9-.9,0-.49-.4-.9-.9-.9h-2.16c-.48.02-.86.41-.86.9Zm5.1-.9c-.49,0-.9.4-.9.9,0,.49.4.9.9.9h2.12c.49,0,.9-.4.9-.9s-.4-.9-.9-.9h-2.12Z"/>
        <path class="cls-2" d="m91.41,72.34c0-.49.4-.9.9-.9h1.34c.49,0,.9.4.9.9,0,.49-.4.9-.9.9h-1.34c-.49,0-.9-.4-.9-.9Z"/>
      </g>
      <path class="cls-2" d="m101.85,109.34c0-.49.4-.9.9-.9h2.69c.49,0,.9.4.9.9s-.4.9-.9.9h-2.69c-.49,0-.9-.4-.9-.9Z"/>
    </g>
    <g>
      <path class="cls-1" d="m95.62,64.62v.03c0,.24-.01.49-.04.73-.02.18.11.34.28.36.18.02.34-.11.36-.28h0c.03-.27.05-.53.05-.8v-.03c0-.18-.14-.32-.32-.32s-.32.14-.32.32h0Zm-.39-2.14c.08.23.15.46.21.7.04.17.22.28.39.23.17-.04.27-.21.23-.38-.06-.26-.14-.52-.23-.77-.05-.17-.23-.26-.4-.21-.17.05-.26.23-.21.4,0,0,0,.02.01.03h0Zm-1.1-1.88c.16.19.3.38.44.58.1.15.3.19.45.09s.19-.3.09-.45c-.15-.22-.31-.44-.48-.64-.11-.14-.31-.17-.45-.06s-.17.31-.06.45c0,0,.01.02.02.02h0Zm-1.68-1.4c.21.12.41.25.61.4.14.11.34.08.45-.07.11-.14.08-.34-.07-.45-.22-.16-.44-.31-.67-.44-.15-.09-.35-.04-.44.12-.09.15-.04.35.12.44h0Zm-2.05-.74c.24.04.48.09.71.16.17.06.35-.03.41-.2.06-.17-.03-.35-.2-.41,0,0-.02,0-.03,0-.26-.08-.52-.14-.78-.18-.18-.02-.34.1-.36.27-.02.17.09.33.25.36h0Zm-2.18.03c.24-.04.48-.07.73-.09.18-.02.31-.17.29-.35s-.17-.31-.35-.29c-.27.02-.53.06-.79.1-.17.03-.29.2-.26.37.03.17.2.29.37.26h0Zm-2.06.72c.21-.12.43-.23.66-.32.16-.07.24-.26.18-.42s-.26-.24-.42-.18h0c-.25.1-.49.22-.73.35-.16.09-.21.28-.12.44.09.16.28.21.44.12h0Zm-1.66,1.39c.15-.19.32-.36.49-.53.12-.13.12-.33,0-.45-.12-.12-.31-.12-.44-.01-.2.19-.38.38-.55.59-.11.14-.09.34.05.45.14.11.34.09.45-.04h0Zm-1.06,1.9c.08-.23.17-.46.28-.67.08-.16,0-.35-.15-.43s-.35,0-.43.15h0c-.12.24-.22.49-.3.75-.07.16.01.35.18.42.16.07.35-.01.42-.18,0-.01,0-.02.01-.03Zm-.35,2.16v-.02c0-.24.01-.48.04-.72.02-.18-.11-.34-.29-.35-.18-.02-.34.11-.35.29-.03.26-.04.52-.04.78v.02c0,.18.14.32.32.32s.32-.14.32-.32h0Zm.36,2.16c-.08-.23-.15-.47-.2-.7-.04-.17-.21-.28-.38-.24-.17.04-.28.21-.24.38.06.26.13.52.22.77.06.17.24.26.41.2.17-.06.26-.24.2-.41h0Zm1.06,1.9c-.16-.19-.3-.38-.43-.59-.1-.15-.29-.19-.44-.1-.15.1-.19.29-.1.44.15.23.31.44.48.65.11.14.32.16.45.04.14-.11.16-.32.04-.45h0Zm1.67,1.38c-.21-.12-.42-.25-.61-.39-.15-.1-.35-.05-.44.09-.09.14-.06.32.07.42.22.16.45.3.68.43.15.09.35.04.44-.11.09-.15.04-.35-.11-.44,0,0-.01,0-.02-.01h0Zm2.07.71c-.24-.04-.48-.09-.71-.16-.17-.05-.35.05-.4.22s.05.35.22.4h0c.25.07.51.13.78.18.17.03.34-.08.37-.26.03-.17-.08-.34-.26-.37,0,0,0,0,0,0h0Zm2.18.02c-.24.04-.48.07-.72.09-.18.01-.31.16-.3.34.01.18.16.31.34.3.27-.02.54-.05.8-.09.17-.03.29-.2.26-.37-.03-.17-.2-.29-.37-.26h0Zm2.05-.75c-.21.12-.43.23-.65.32-.16.07-.23.26-.16.42.07.16.26.23.42.16.25-.11.49-.23.72-.36.16-.08.22-.28.14-.43-.08-.16-.28-.22-.43-.14,0,0-.02,0-.02.01h0Zm1.66-1.4c-.16.19-.32.36-.5.53-.12.13-.12.33,0,.45.12.12.31.12.44.01.2-.18.38-.38.55-.58.11-.14.1-.34-.04-.45-.14-.11-.34-.1-.45.04Zm1.09-1.89c-.08.23-.18.45-.29.67-.08.16-.02.35.14.43.16.08.35.02.43-.14h0c.12-.24.23-.49.32-.74.07-.17-.02-.35-.18-.42-.17-.07-.35.02-.42.18,0,0,0,.01,0,.02h0Z"/>
      <g>
        <circle class="cls-2" cx="89.36" cy="64.98" r="4.14"/>
        <path class="cls-1" d="m93.5,64.61h-.69c0,1.9-1.54,3.45-3.45,3.44s-3.45-1.54-3.44-3.45,1.54-3.45,3.45-3.44c.91,0,1.79.36,2.43,1.01.65.65,1.01,1.52,1.01,2.44h1.38c0-2.66-2.16-4.82-4.83-4.82-2.66,0-4.82,2.16-4.82,4.83,0,2.66,2.16,4.82,4.83,4.82,1.28,0,2.5-.51,3.41-1.41.91-.91,1.42-2.13,1.42-3.42h-.69Z"/>
        <circle class="cls-2" cx="89.41" cy="64.67" r="2.07"/>
        <path class="cls-1" d="m91.48,64.67h-.34c0,.95-.77,1.72-1.72,1.72-.95,0-1.72-.77-1.72-1.72,0-.95.77-1.72,1.72-1.72.46,0,.89.18,1.21.5.32.32.5.76.5,1.22h.69c0-1.33-1.08-2.41-2.41-2.41s-2.41,1.08-2.41,2.41c0,1.33,1.08,2.41,2.41,2.41,1.33,0,2.41-1.08,2.41-2.41h0s-.34,0-.34,0Z"/>
        <polyline class="cls-1" points="88.72 60.95 88.72 63.02 90.09 63.02 90.09 60.95"/>
        <polyline class="cls-1" points="88.72 66.92 88.72 69.22 90.09 69.22 90.09 66.92"/>
      </g>
    </g>
    <rect class="cls-1" x="52.3" y="29.11" width="6.8" height="6.8"/>
    <rect class="cls-1" x="63.87" y="29.11" width="6.8" height="6.8"/>
    <rect class="cls-1" x="52.3" y="40.84" width="6.8" height="6.8"/>
    <rect class="cls-1" x="63.87" y="40.84" width="6.8" height="6.8"/>
  </g>
</svg>