<?xml version="1.0" encoding="UTF-8"?>
<svg id="Layer_2" data-name="Layer 2" xmlns="http://www.w3.org/2000/svg" viewBox="0 0 134 134">
  <defs>
    <style>
      .cls-1 {
        fill: #fff;
      }

      .cls-2, .cls-3 {
        fill: #073e5f;
      }

      .cls-3 {
        font-family: PatuaOne-Regular, 'Patua One';
        font-size: 12px;
      }
    </style>
  </defs>
  <g id="Layer_1-2" data-name="Layer 1">
    <g id="Group_53" data-name="Group 53">
      <g id="Rectangle_38" data-name="Rectangle 38">
        <g>
          <rect class="cls-2" width="134" height="134" rx="15" ry="15"/>
          <rect class="cls-1" x="1.68" y="1.68" width="130.63" height="130.63" rx="13.86" ry="13.86"/>
        </g>
      </g>
    </g>
    <g>
      <path class="cls-2" d="m106.74,113.53l-12.03-7.2c-.13-.08-.59.46-1.03,1.19s-.69,1.39-.56,1.47l12.03,7.2c.13.08.59-.46,1.03-1.19s.69-1.39.56-1.47Z"/>
      <path class="cls-2" d="m29.67,113.53l12.03-7.2c.13-.08.59.46,1.03,1.19s.69,1.39.56,1.47l-12.03,7.2c-.13.08-.59-.46-1.03-1.19s-.69-1.39-.56-1.47Z"/>
      <path class="cls-2" d="m109.46,74.04H37.69v-30.37c0-7.52,6.11-13.63,13.63-13.63,6.37,0,11.71,4.4,13.2,10.31-3.84.98-6.78,4.19-7.35,8.18-.14.95.62,1.81,1.58,1.81h16.46c.96,0,1.72-.85,1.58-1.81-.58-4.03-3.59-7.27-7.49-8.21-1.58-8.49-9.03-14.95-17.98-14.95-10.09,0-18.3,8.21-18.3,18.3v30.37h-2.83c-2.66,0-4.81,2.16-4.81,4.81v14.16c0,10.68,8.66,19.34,19.34,19.34h50.22c10.68,0,19.34-8.66,19.34-19.34v-14.16c0-2.66-2.16-4.81-4.81-4.81Zm-23.94,7.18h-51.34c-.39,0-.7-.31-.7-.7s.31-.7.7-.7h51.34c.39,0,.7.31.7.7s-.31.7-.7.7Zm12.19,0h-6.81c-.39,0-.7-.31-.7-.7s.31-.7.7-.7h6.81c.39,0,.7.31.7.7s-.31.7-.7.7Z"/>
      <path class="cls-2" d="m62.32,53.9v5.81c0,.99.39,1.79.86,1.79s.86-.8.86-1.79v-5.81c0-.99-.39-1.79-.86-1.79s-.86.8-.86,1.79Z"/>
      <path class="cls-2" d="m67.01,53.9v5.81c0,.99.39,1.79.86,1.79s.86-.8.86-1.79v-5.81c0-.99-.39-1.79-.86-1.79s-.86.8-.86,1.79Z"/>
      <path class="cls-2" d="m71.69,53.9v5.81c0,.99.39,1.79.86,1.79s.86-.8.86-1.79v-5.81c0-.99-.39-1.79-.86-1.79s-.86.8-.86,1.79Z"/>
    </g>
    <g>
      <circle class="cls-1" cx="68.73" cy="97.11" r="9.21"/>
      <text class="cls-3" transform="translate(63.58 101.24)"><tspan x="0" y="0">3+</tspan></text>
    </g>
  </g>
</svg>