<svg width="180" height="180" viewBox="0 0 180 180" fill="none" xmlns="http://www.w3.org/2000/svg">
<g clip-path="url(#clip0_158_618)">
<path d="M90 180C139.706 180 180 139.706 180 90C180 40.2944 139.706 0 90 0C40.2944 0 0 40.2944 0 90C0 139.706 40.2944 180 90 180Z" fill="#B5BED1"/>
<path d="M72.0147 37.1061C54.2138 37.1061 39.6494 51.6705 39.6494 69.4714V106.457C39.6494 124.258 54.2138 138.822 72.0147 138.822C89.8156 138.822 104.38 124.258 104.38 106.457V69.4714C104.38 51.6705 89.8156 37.1061 72.0147 37.1061ZM85.6551 104.542C85.6551 112.189 79.3964 118.448 71.7492 118.448C64.102 118.448 57.8434 112.189 57.8434 104.542V71.3908C57.8434 63.7436 64.102 57.485 71.7492 57.485C79.3964 57.485 85.6551 63.7436 85.6551 71.3908V104.542Z" fill="white"/>
<path d="M72.0147 37.106V35.0334C62.545 35.0334 53.9228 38.9132 47.6948 45.1463C41.4617 51.3794 37.5819 59.9966 37.5819 69.4662V106.451C37.5819 115.921 41.4617 124.543 47.6948 130.771C53.9279 137.005 62.545 140.884 72.0147 140.884C81.4843 140.884 90.1066 137.005 96.3346 130.771C102.568 124.538 106.447 115.921 106.447 106.451V69.4662C106.447 59.9966 102.568 51.3743 96.3346 45.1463C90.1015 38.9132 81.4843 35.0334 72.0147 35.0334V39.1735C80.3459 39.1735 87.9064 42.5785 93.4095 48.0715C98.9075 53.5695 102.307 61.135 102.307 69.4662V106.451C102.307 114.783 98.9024 122.343 93.4095 127.846C87.9115 133.344 80.3459 136.744 72.0147 136.744C63.6834 136.744 56.123 133.339 50.6199 127.846C45.1219 122.348 41.722 114.783 41.722 106.451V69.4662C41.722 61.135 45.127 53.5746 50.6199 48.0715C56.1179 42.5734 63.6834 39.1735 72.0147 39.1735V37.1009V37.106ZM85.6551 104.542H83.5825C83.5825 107.794 82.2552 110.745 80.106 112.899C77.9517 115.053 75.0011 116.375 71.7492 116.375C68.4974 116.375 65.5467 115.048 63.3925 112.899C61.2382 110.745 59.916 107.794 59.916 104.542V71.3908C59.916 68.139 61.2433 65.1883 63.3925 63.034C65.5467 60.8797 68.4974 59.5576 71.7492 59.5576C75.0011 59.5576 77.9517 60.8848 80.106 63.034C82.2603 65.1883 83.5825 68.139 83.5825 71.3908V104.542H87.7226V71.3908C87.7226 66.9954 85.9205 62.9881 83.0311 60.1038C80.1417 57.2144 76.1395 55.4123 71.7441 55.4123C67.3488 55.4123 63.3414 57.2144 60.4571 60.1038C57.5677 62.9881 55.7657 66.9954 55.7657 71.3908V104.542C55.7657 108.938 57.5677 112.945 60.4571 115.829C63.3414 118.719 67.3488 120.521 71.7441 120.521C76.1395 120.521 80.1417 118.719 83.0311 115.829C85.9205 112.945 87.7226 108.938 87.7226 104.542H85.65H85.6551Z" fill="#172149"/>
<path d="M99.2598 134.636C94.3488 132.676 91.9342 127.06 93.8945 122.149L120.313 55.9177C122.273 51.0068 127.888 48.5921 132.799 50.5524C137.71 52.5127 140.125 58.1282 138.164 63.0391L111.746 129.271C109.786 134.181 104.171 136.596 99.2598 134.636Z" fill="white"/>
<path d="M99.2597 134.636H101.399V133.186L100.051 132.65C98.591 132.068 97.4271 131.078 96.6103 129.853C95.7986 128.627 95.3494 127.167 95.3494 125.687C95.3494 124.773 95.5178 123.849 95.8752 122.946L122.293 56.7141C122.875 55.2541 123.866 54.0902 125.091 53.2734C126.316 52.4617 127.776 52.0125 129.256 52.0125C130.17 52.0125 131.094 52.1809 131.998 52.5383L132.789 50.5473H130.65V51.9971L131.998 52.5332C133.458 53.1151 134.622 54.1055 135.438 55.3307C136.25 56.5558 136.699 58.0159 136.699 59.4963C136.699 60.4101 136.531 61.3341 136.174 62.2376L109.755 128.469C109.174 129.929 108.183 131.093 106.958 131.91C105.733 132.721 104.273 133.171 102.792 133.171C101.879 133.171 100.955 133.002 100.051 132.645L99.2597 134.636L98.4685 136.627C99.8825 137.193 101.353 137.459 102.797 137.459C105.136 137.459 107.407 136.759 109.327 135.488C111.246 134.217 112.824 132.359 113.737 130.067L140.155 63.8355C140.722 62.4214 140.987 60.9512 140.987 59.5065C140.987 57.1684 140.288 54.8967 139.017 52.9773C137.746 51.0578 135.888 49.4804 133.596 48.5666L132.804 50.5576H134.943V49.1077L133.596 48.5717C132.181 48.0051 130.711 47.7396 129.267 47.7396C126.928 47.7396 124.657 48.439 122.737 49.7101C120.818 50.9813 119.24 52.8395 118.327 55.1316L91.9086 121.363C91.342 122.777 91.0765 124.247 91.0765 125.692C91.0765 128.03 91.7759 130.302 93.047 132.221C94.3182 134.141 96.1764 135.718 98.4685 136.632L99.2597 134.641H97.1208V136.091L98.4685 136.627L99.2597 134.636Z" fill="#172149"/>
<path d="M140.737 121.584C140.866 115.65 136.16 110.736 130.226 110.608C124.293 110.479 119.379 115.185 119.25 121.118C119.122 127.052 123.828 131.966 129.761 132.094C135.695 132.223 140.609 127.517 140.737 121.584Z" fill="white"/>
<path d="M140.753 121.358H138.986C138.986 123.844 137.986 126.075 136.357 127.703C134.729 129.332 132.493 130.332 130.012 130.332C127.526 130.332 125.295 129.332 123.667 127.703C122.038 126.075 121.037 123.839 121.037 121.358C121.037 118.872 122.038 116.641 123.667 115.012C125.295 113.384 127.531 112.383 130.012 112.383C132.498 112.383 134.729 113.384 136.357 115.012C137.986 116.641 138.986 118.877 138.986 121.358H142.524C142.524 117.907 141.12 114.767 138.859 112.511C136.602 110.25 133.463 108.846 130.012 108.846C126.561 108.846 123.421 110.25 121.165 112.511C118.904 114.767 117.5 117.907 117.5 121.358C117.5 124.809 118.904 127.948 121.165 130.205C123.421 132.466 126.561 133.87 130.012 133.87C133.463 133.87 136.602 132.466 138.859 130.205C141.12 127.948 142.524 124.809 142.524 121.358H140.758H140.753Z" fill="#172149"/>
<path d="M103.083 75.1276C109.018 75.1276 113.829 70.3165 113.829 64.3817C113.829 58.447 109.018 53.6359 103.083 53.6359C97.1486 53.6359 92.3375 58.447 92.3375 64.3817C92.3375 70.3165 97.1486 75.1276 103.083 75.1276Z" fill="white"/>
<path d="M113.829 64.3817H112.063C112.063 66.8678 111.062 69.0987 109.434 70.7271C107.805 72.3556 105.569 73.3562 103.088 73.3562C100.602 73.3562 98.3715 72.3556 96.7431 70.7271C95.1146 69.0987 94.114 66.8627 94.114 64.3817C94.114 61.8956 95.1146 59.6647 96.7431 58.0363C98.3715 56.4078 100.607 55.4072 103.088 55.4072C105.575 55.4072 107.805 56.4078 109.434 58.0363C111.062 59.6647 112.063 61.9007 112.063 64.3817H115.601C115.601 60.9308 114.197 57.7912 111.935 55.5349C109.679 53.2734 106.539 51.8695 103.088 51.8695C99.6376 51.8695 96.498 53.2734 94.2416 55.5349C91.9801 57.7912 90.5763 60.9308 90.5763 64.3817C90.5763 67.8326 91.9801 70.9722 94.2416 73.2286C96.498 75.49 99.6376 76.8939 103.088 76.8939C106.539 76.8939 109.679 75.49 111.935 73.2286C114.197 70.9722 115.601 67.8326 115.601 64.3817H113.834H113.829Z" fill="#172149"/>
</g>
<defs>
<clipPath id="clip0_158_618">
<rect width="180" height="180" fill="white"/>
</clipPath>
</defs>
</svg>
