<svg width="180" height="180" viewBox="0 0 180 180" fill="none" xmlns="http://www.w3.org/2000/svg">
<g clip-path="url(#clip0_161_643)">
<path d="M153.638 153.64C188.785 118.492 188.785 61.5076 153.638 26.3604C118.49 -8.78679 61.5055 -8.78679 26.3583 26.3604C-8.78889 61.5076 -8.78889 118.492 26.3583 153.64C61.5055 188.787 118.49 188.787 153.638 153.64Z" fill="#B5BED1"/>
<path d="M134.27 59.7634L98.367 34.6114C94.1299 31.6403 88.494 31.6148 84.2263 34.5348L47.3636 59.7736C43.9841 62.0912 41.9575 65.9251 41.9575 70.0192V122.467C41.9575 129.328 47.5167 134.888 54.3778 134.888H127.144C134.005 134.888 139.564 129.328 139.564 122.467V69.9324C139.564 65.8791 137.588 62.0861 134.27 59.7583V59.7634Z" fill="white"/>
<path d="M134.27 59.7635L135.832 57.5326L99.9291 32.3806C97.3256 30.5582 94.283 29.6393 91.2405 29.6393C88.2541 29.6393 85.2626 30.5224 82.6897 32.2887L45.827 57.5275C41.7022 60.3506 39.2416 65.0267 39.2416 70.0193V122.467C39.2416 126.638 40.9416 130.441 43.6778 133.172C46.409 135.909 50.2121 137.609 54.3829 137.609H127.149C131.319 137.609 135.123 135.909 137.854 133.172C140.59 130.441 142.29 126.638 142.29 122.467V69.9325C142.29 64.9961 139.88 60.3659 135.837 57.5326L134.275 59.7635L132.713 61.9944C135.306 63.8117 136.848 66.7726 136.848 69.9376V122.473C136.848 125.158 135.766 127.567 134.01 129.328C132.248 131.09 129.839 132.167 127.154 132.167H54.3778C51.6926 132.167 49.283 131.085 47.5218 129.328C45.7606 127.567 44.6835 125.158 44.6835 122.473V70.0244C44.6835 66.8236 46.2609 63.8321 48.9053 62.0199L85.768 36.7811C87.422 35.6478 89.3313 35.0862 91.2456 35.0862C93.1957 35.0862 95.1356 35.6682 96.81 36.8423L132.713 61.9944L134.275 59.7635H134.27Z" fill="#172149"/>
<path d="M74.4278 59C61.0351 59 52 70.0664 52 82.2905C52 93.7034 58.4715 103.456 66.26 111.107C74.0485 118.758 83.2704 124.43 89.6313 127.712C89.9981 127.901 90.4048 128 90.8174 128C91.2301 128 91.6367 127.901 92.0035 127.712C98.3645 124.43 107.586 118.758 115.375 111.107C123.163 103.456 129.635 93.7034 129.635 82.2905C129.635 70.0664 120.6 59 107.207 59C99.7919 59 94.6033 62.6138 90.8174 67.5183C87.0316 62.6138 81.8429 59 74.4278 59ZM74.4278 64.1757C81.5096 64.1757 85.2178 67.59 88.607 73.26C88.8379 73.6392 89.1626 73.9527 89.5497 74.1702C89.9368 74.3877 90.3734 74.5019 90.8174 74.5019C91.2614 74.5019 91.698 74.3877 92.0851 74.1702C92.4722 73.9527 92.7969 73.6392 93.0279 73.26C96.417 67.59 100.125 64.1757 107.207 64.1757C117.807 64.1757 124.459 72.5283 124.459 82.2905C124.459 91.7294 118.996 100.308 111.763 107.414C104.933 114.123 96.7816 119.225 90.8174 122.402C84.8532 119.225 76.702 114.123 69.8722 107.414C62.6387 100.308 57.1757 91.7294 57.1757 82.2905C57.1757 72.5283 63.8277 64.1757 74.4278 64.1757Z" fill="#172149"/>
</g>
<defs>
<clipPath id="clip0_161_643">
<rect width="180" height="180" fill="white"/>
</clipPath>
</defs>
</svg>
