<?xml version="1.0" encoding="UTF-8"?>
<svg id="Layer_2" data-name="Layer 2" xmlns="http://www.w3.org/2000/svg" viewBox="0 0 134 134">
  <defs>
    <style>
      .cls-1 {
        fill: #fff;
      }

      .cls-2 {
        fill: #073e5f;
      }
    </style>
  </defs>
  <g id="Layer_1-2" data-name="Layer 1">
    <g id="Group_53" data-name="Group 53">
      <g id="Rectangle_38" data-name="Rectangle 38">
        <g>
          <rect class="cls-2" width="134" height="134" rx="15" ry="15"/>
          <rect class="cls-1" x="1.68" y="1.68" width="130.63" height="130.63" rx="13.86" ry="13.86"/>
        </g>
      </g>
    </g>
    <g id="D759_Window._furniture_interior" data-name="D759, Window. furniture, interior">
      <g>
        <path class="cls-2" d="m42.56,96.54h48.32v-26.88h-48.32v26.88Zm31.45-13.87l3-1.72,1.72-3c.14-.29.43-.43.71-.43s.57.14.71.43l1.72,3,3,1.72c.29.14.43.43.43.71s-.14.57-.43.71l-3,1.72-1.57,3c-.14.29-.43.43-.71.43s-.71,0-.86-.43l-1.72-3-3-1.72c-.29-.14-.43-.43-.43-.71s.14-.57.43-.71Z"/>
        <rect class="cls-2" x="42.56" y="41.07" width="23.3" height="26.88"/>
        <path class="cls-2" d="m78.58,84.82l1,1.86,1-1.86c.14-.14.14-.29.29-.29l1.86-1-1.86-1c-.14-.14-.29-.14-.29-.29l-1-2-1,1.86c-.14.14-.14.29-.29.29l-1.86,1,1.86,1c0,.14.14.29.29.43Z"/>
        <path class="cls-2" d="m40.84,68.81v-28.88c0-.43.43-.86.86-.86h50.04c.43,0,.86.43.86.86v56.61h7.15V32.21H33.69v64.33h7.15v-27.73Z"/>
        <rect class="cls-2" x="67.57" y="41.07" width="23.3" height="26.88"/>
        <rect class="cls-2" x="37.27" y="107.26" width="5.43" height="5.43"/>
        <rect class="cls-2" x="90.88" y="107.26" width="5.43" height="5.43"/>
        <polygon class="cls-2" points="100.74 98.26 91.73 98.26 41.7 98.26 32.83 98.26 30.12 98.26 30.12 105.4 36.41 105.4 43.56 105.4 90.02 105.4 97.17 105.4 103.31 105.4 103.31 98.26 100.74 98.26"/>
      </g>
    </g>
  </g>
</svg>