<?xml version="1.0" encoding="UTF-8"?>
<svg id="Layer_2" data-name="Layer 2" xmlns="http://www.w3.org/2000/svg" viewBox="0 0 134 134">
  <defs>
    <style>
      .cls-1 {
        fill: #fff;
      }

      .cls-2 {
        fill: #073e5f;
      }
    </style>
  </defs>
  <g id="Layer_1-2" data-name="Layer 1">
    <g id="Group_53" data-name="Group 53">
      <g id="Rectangle_38" data-name="Rectangle 38">
        <g>
          <rect class="cls-2" width="134" height="134" rx="15" ry="15"/>
          <rect class="cls-1" x="1.68" y="1.68" width="130.63" height="130.63" rx="13.86" ry="13.86"/>
        </g>
      </g>
    </g>
    <g>
      <polygon class="cls-2" points="66.94 35.46 122.44 72.7 124.73 70.41 66.94 30.99 9.16 70.41 11.44 72.7 66.94 35.46"/>
      <path class="cls-2" d="m47.26,90.38c.32,0,.59-.26.59-.59s-.26-.59-.59-.59-.59.26-.59.59.26.59.59.59Z"/>
      <path class="cls-2" d="m118.62,101.06v-29.09l-51.68-33.25L15.26,71.96v29.09h-3.33v1.95h112.92v-1.95h-6.22Zm-18.26-33.97l10.82,6.96h-10.82v-6.96Zm0,7.93h11.89v11.79h-11.89v-11.79Zm0,12.75h11.89v8.89h-11.89v-8.89Zm-13.21-29.17l12.24,7.87v7.58h-12.24v-15.46Zm0,16.42h12.24v11.79h-12.24v-11.79Zm0,12.75h12.24v8.89h-12.24v-8.89Zm-13.84-38.08l12.88,8.28v16.08h-12.88v-24.36Zm0,25.33h12.88v11.79h-12.88v-11.79Zm0,12.75h12.88v8.89h-12.88v-8.89Zm-8.92-3.89h-4.65v-4.65c2.51.13,4.51,2.14,4.65,4.65Zm0,.53c-.13,2.51-2.14,4.51-4.65,4.65v-4.65h4.65Zm-12.57-27.43l9.72-6.25v19.91h-9.72v-13.66Zm2.75,26.9c.13-2.51,2.14-4.51,4.65-4.65v4.65h-4.65Zm4.65.53v4.65c-2.51-.13-4.51-2.14-4.65-4.65h4.65Zm-16.72-21.43l8.35-5.37v13.04h-8.35v-7.66Zm-.97.62v7.04h-10.94l10.94-7.04Zm-15.75,15.64c2.51.13,4.51,2.14,4.65,4.65h-4.65v-4.65Zm0,5.17h4.65c-.13,2.51-2.14,4.51-4.65,4.65v-4.65Zm-.53-5.17v4.65h-4.65c.13-2.51,2.14-4.51,4.65-4.65Zm0,5.17v4.65c-2.51-.13-4.51-2.14-4.65-4.65h4.65Zm-8.25,16.65c-.02-.13-.03-.26,0-.42.09-.6.79-1.03,1.37-.83-.21-.24-.16-.66.1-.84.26-.18.67-.08.82.2,0-.84.28-1.7.86-2.32.58-.61,1.48-.94,2.3-.72.81.22,1.45,1.05,1.35,1.89.28-.74,1.15-1.21,1.93-1.02.77.19,1.34,1,1.25,1.79.28-.36.83-.45,1.21-.2.38.25.52.79.31,1.19.42-.6,1.48-.37,1.82.28.16.31.18.66.12,1.01h-13.43Zm19.21,0v-20.45c0-1.14.93-2.07,2.07-2.07h8.42c1.14,0,2.07.93,2.07,2.07v20.45h-12.56Zm18.2,0c-.02-.13-.03-.26,0-.42.09-.6.79-1.03,1.37-.83-.21-.24-.16-.66.1-.84.26-.18.67-.08.82.2,0-.84.28-1.7.86-2.32.58-.61,1.48-.94,2.3-.72.81.22,1.45,1.05,1.35,1.89.28-.74,1.15-1.21,1.93-1.02.77.19,1.34,1,1.25,1.79.28-.36.83-.45,1.21-.2.38.25.52.79.31,1.19.42-.6,1.48-.37,1.82.28.16.31.18.66.12,1.01h-13.43Z"/>
    </g>
  </g>
</svg>