<?xml version="1.0" encoding="UTF-8"?>
<svg id="Layer_2" data-name="Layer 2" xmlns="http://www.w3.org/2000/svg" viewBox="0 0 134 134">
  <defs>
    <style>
      .cls-1 {
        fill: #fff;
      }

      .cls-2 {
        fill: #073e5f;
      }
    </style>
  </defs>
  <g id="Layer_1-2" data-name="Layer 1">
    <g id="Group_53" data-name="Group 53">
      <g id="Rectangle_38" data-name="Rectangle 38">
        <g>
          <rect class="cls-2" width="134" height="134" rx="15" ry="15"/>
          <rect class="cls-1" x="1.68" y="1.68" width="130.63" height="130.63" rx="13.86" ry="13.86"/>
        </g>
      </g>
    </g>
    <g>
      <rect class="cls-2" x="34.86" y="55.79" width="9.35" height="7.2" transform="translate(79.06 118.77) rotate(180)"/>
      <rect class="cls-2" x="29.88" y="54.98" width="4.91" height="8.81" transform="translate(64.67 118.77) rotate(180)"/>
      <polygon class="cls-2" points="29.88 54.52 25.98 51.7 25.98 67.57 29.88 64.67 29.88 54.52"/>
      <polygon class="cls-1" points="43.8 62.44 43.8 57.67 39.03 62.44 43.8 62.44"/>
    </g>
    <g>
      <path class="cls-2" d="m96.6,81.76v-.25l-4.1-14.94c-.3-1.07-1.27-1.81-2.38-1.81h-40.54c-1.11,0-2.08.74-2.38,1.81l-4.1,14.94h0l-3.61,4.76c-.32.43-.49.94-.49,1.48v17.07c0,1.36,1.1,2.46,2.46,2.46h.49v5.91c0,1.36,1.1,2.46,2.46,2.46h11c1.36,0,2.46-1.1,2.46-2.46v-5.91h23.14v5.91c0,1.36,1.1,2.46,2.46,2.46h11c1.36,0,2.46-1.1,2.46-2.46v-5.91h.49c1.36,0,2.46-1.1,2.46-2.46v-17.07c0-.47-.15-.92-.41-1.31l-2.87-4.68Zm-43.38-12.47h36.76l2.71,10.01h-42.26l2.79-10.01Zm6.57,28.15c0,1.36-1.1,2.46-2.46,2.46h-7.71c-1.36,0-2.46-1.1-2.46-2.46v-6.24c0-1.36,1.1-2.46,2.46-2.46h7.71c1.36,0,2.46,1.1,2.46,2.46v6.24Zm18.38-.98h-13.95v-4.92h13.95v4.92Zm17.07,1.07c0,1.36-1.1,2.46-2.46,2.46h-7.71c-1.36,0-2.46-1.1-2.46-2.46v-6.32c0-1.36,1.1-2.46,2.46-2.46h7.71c1.36,0,2.46,1.1,2.46,2.46v6.32Z"/>
      <path class="cls-2" d="m109.77,21.55H22.27c-1.66,0-3,1.34-3,3v92h6V47.55h81.5v69h6V24.55c0-1.66-1.34-3-3-3Z"/>
    </g>
    <ellipse class="cls-1" cx="66.02" cy="34.15" rx="11.12" ry="11.03"/>
    <path class="cls-2" d="m70.33,29.83c-.25-.25-.66-.25-.91,0l-3.41,3.41-3.41-3.41c-.25-.25-.66-.25-.91,0-.25.25-.25.66,0,.91l3.41,3.41-3.41,3.41c-.25.25-.25.66,0,.91.25.25.66.25.91,0l3.41-3.41,3.41,3.41c.25.25.66.25.91,0,.25-.25.25-.66,0-.91l-3.41-3.41,3.41-3.41c.25-.25.25-.66,0-.91h0Z"/>
  </g>
</svg>