<?xml version="1.0" encoding="UTF-8"?>
<svg id="Layer_2" data-name="Layer 2" xmlns="http://www.w3.org/2000/svg" viewBox="0 0 134 134">
  <defs>
    <style>
      .cls-1 {
        fill: #fff;
      }

      .cls-2 {
        fill: #073e5f;
      }
    </style>
  </defs>
  <g id="Layer_1-2" data-name="Layer 1">
    <g id="Group_53" data-name="Group 53">
      <g id="Rectangle_38" data-name="Rectangle 38">
        <g>
          <rect class="cls-2" width="134" height="134" rx="15" ry="15"/>
          <rect class="cls-1" x="1.68" y="1.68" width="130.63" height="130.63" rx="13.86" ry="13.86"/>
        </g>
      </g>
    </g>
    <path class="cls-1" d="m54.82,93.31c0,2.41-1.95,4.36-4.36,4.36s-4.36-1.95-4.36-4.36,1.95-4.36,4.36-4.36,4.36,1.95,4.36,4.36Z"/>
    <g>
      <path class="cls-2" d="m82.9,43.54c0-5.76-4.67-10.44-10.44-10.44h-14.62c-5.76,0-10.44,4.67-10.44,10.44v12.26h35.5v-12.26Z"/>
      <rect class="cls-2" x="47.4" y="59.95" width="35.5" height="23.27"/>
      <rect class="cls-2" x="47.4" y="87.39" width="35.5" height="27.82"/>
      <rect class="cls-2" x="82.9" y="55.79" width=".72" height="4.16"/>
      <rect class="cls-2" x="46.1" y="55.79" width="1.3" height="4.16"/>
      <rect class="cls-2" x="46.52" y="83.23" width=".88" height="4.16"/>
      <rect class="cls-2" x="82.9" y="83.23" width=".88" height="4.16"/>
      <path class="cls-2" d="m72.23,31.41c0-.64-.52-1.16-1.16-1.16h-12.44c-.64,0-1.16.52-1.16,1.16v.81h14.76v-.81Z"/>
      <rect class="cls-2" x="58.83" y="24.59" width="3.18" height="5.03"/>
      <rect class="cls-2" x="67.7" y="24.59" width="3.18" height="5.03"/>
      <path class="cls-2" d="m66.7,29.38v-2.21c.53-.45.87-1.12.87-1.87s-.34-1.42-.87-1.87v-2.21h-3.12v2.21c-.53.45-.87,1.12-.87,1.87s.34,1.42.87,1.87v2.21h3.12Zm-3.37-4.07c0-1,.81-1.81,1.81-1.81s1.81.81,1.81,1.81-.81,1.81-1.81,1.81-1.81-.81-1.81-1.81Z"/>
      <rect class="cls-2" x="59.13" y="18.79" width="12.01" height="2.17" rx=".64" ry=".64"/>
    </g>
  </g>
</svg>