<?xml version="1.0" encoding="UTF-8"?>
<svg id="Layer_2" data-name="Layer 2" xmlns="http://www.w3.org/2000/svg" viewBox="0 0 134 134">
  <defs>
    <style>
      .cls-1 {
        fill: #fff;
      }

      .cls-2 {
        fill: #073e5f;
      }
    </style>
  </defs>
  <g id="Layer_1-2" data-name="Layer 1">
    <g id="Group_53" data-name="Group 53">
      <g id="Rectangle_38" data-name="Rectangle 38">
        <g>
          <rect class="cls-2" width="134" height="134" rx="15" ry="15"/>
          <rect class="cls-1" x="1.68" y="1.68" width="130.63" height="130.63" rx="13.86" ry="13.86"/>
        </g>
      </g>
    </g>
    <g>
      <path class="cls-2" d="m105.78,55.43l-25.36-20.54-25.35,20.54h50.71Zm-25.35-11.6c1.5,0,2.72,1.22,2.72,2.72s-1.22,2.72-2.72,2.72-2.72-1.22-2.72-2.72,1.22-2.72,2.72-2.72Z"/>
      <rect class="cls-2" x="55.07" y="56.74" width="50.71" height="3.24"/>
      <path class="cls-2" d="m63.68,63.15v-1.76h-8.61v1.76c0,.43.34.77.77.77h7.07c.43,0,.77-.34.77-.77Z"/>
      <rect class="cls-2" x="56.57" y="65.19" width="5.61" height="29.48"/>
      <path class="cls-2" d="m105.78,63.15v-1.76h-8.61v1.76c0,.43.34.77.77.77h7.07c.43,0,.77-.34.77-.77Z"/>
      <rect class="cls-2" x="98.67" y="65.19" width="5.61" height="29.48"/>
      <rect class="cls-2" x="70.95" y="75.14" width="18.94" height="19.53"/>
      <path class="cls-2" d="m97.21,94.67v-29.48c-.37,0-.71-.15-.95-.39-.24-.24-.39-.58-.39-.95v-2.45h-30.88v2.45c0,.74-.6,1.34-1.34,1.34v29.48h6.13v-20.72h21.31v20.72h6.13Zm-18.68-29.15h3.8v4.08h-3.8v-4.08Zm-.94,4.08h-3.8v-4.08h3.8v4.08Zm5.68-4.08h3.8v4.08h-3.8v-4.08Zm-13.49,0h3.08v4.08h-3.08v-4.08Zm18.23,4.08v-4.08h3.08v4.08h-3.08Z"/>
      <rect class="cls-2" x="28.22" y="95.87" width="77.56" height="3.24"/>
      <path class="cls-2" d="m54.93,67.08h-26.71v27.59h26.71v-27.59Zm-8.71,19.35h-9.3v-11.81h9.3v11.81Z"/>
      <path class="cls-2" d="m45.99,74.86h-8.83v11.34h8.83v-11.34Zm-.75,5.32h-3.31v-4.59h3.31v4.59Zm-4.02-4.59v4.59h-3.31v-4.59h3.31Zm-3.31,5.3h3.31v4.59h-3.31v-4.59Zm4.03,4.59v-4.59h3.31v4.59h-3.31Z"/>
      <polygon class="cls-2" points="53.61 56.74 51.39 56.74 70.79 41.02 57.48 41.02 28.22 65.19 53.61 65.19 53.61 56.74"/>
    </g>
  </g>
</svg>