<?xml version="1.0" encoding="UTF-8"?>
<svg id="Layer_2" data-name="Layer 2" xmlns="http://www.w3.org/2000/svg" viewBox="0 0 134 134">
  <defs>
    <style>
      .cls-1 {
        fill: #fff;
      }

      .cls-2 {
        fill: #073e5f;
      }
    </style>
  </defs>
  <g id="Layer_1-2" data-name="Layer 1">
    <g id="Group_53" data-name="Group 53">
      <g id="Rectangle_38" data-name="Rectangle 38">
        <g>
          <rect class="cls-2" width="134" height="134" rx="15" ry="15"/>
          <rect class="cls-1" x="1.68" y="1.68" width="130.63" height="130.63" rx="13.86" ry="13.86"/>
        </g>
      </g>
    </g>
    <g>
      <g>
        <path class="cls-2" d="m61.39,26.61h-13.55c.17.63-1.61,2.31-1.61,2.31l16.75-.15c-1.19-.52-1.6-2.16-1.6-2.16Z"/>
        <path class="cls-2" d="m65.34,54.26l.39,1.03.36-.15.36-.15-.46-1c-.12.17-.31.3-.54.3-.04,0-.07-.02-.11-.02Z"/>
        <path class="cls-2" d="m64.78,53.61c0,.33.24.59.56.65l-.4-1.06c-.09.11-.16.25-.16.41Z"/>
        <path class="cls-2" d="m69.76,52.06l.84-.35c-.8-2-2.7-3.42-4.93-3.42v.93c1.85,0,3.43,1.17,4.09,2.84Z"/>
        <path class="cls-2" d="m63.8,49.67l-.18.07,1.32,3.46c.12-.15.3-.26.51-.26.02,0,.04.01.07.01l-1.55-3.36-.18.07Z"/>
        <path class="cls-2" d="m66.12,53.61c0-.35-.27-.62-.6-.66l.47,1.03c.08-.11.13-.23.13-.37Z"/>
        <path class="cls-2" d="m65.31,49.22v-.93c-2.23,0-4.13,1.41-4.93,3.42l.84.35c.66-1.66,2.24-2.84,4.09-2.84Z"/>
        <path class="cls-2" d="m84.34,29.95h-37.69c-3.31,0-6,2.69-6,6v62c0,3.31,2.69,6,6,6h11.52v9.92c.03.43.41.76.84.72.39-.03.69-.34.72-.72v-9.92h4.79v9.92c0,.43.35.78.78.78s.78-.35.78-.78v-9.92h4.79v9.92c.03.43.41.76.84.72.39-.03.69-.34.72-.72v-9.92h11.89c3.31,0,6-2.69,6-6v-62c0-3.31-2.69-6-6-6Zm-18.85,16.31c3.33,0,6.03,2.7,6.03,6.03s-2.7,6.03-6.03,6.03-6.03-2.7-6.03-6.03,2.7-6.03,6.03-6.03Zm-7.51,49.24s0,0,0,0,0,0,0,0h0c0,2.4-1.95,4.35-4.36,4.35h0c-2.41,0-4.36-1.96-4.35-4.37,0-2.41,1.96-4.36,4.37-4.35,2.4,0,4.35,1.95,4.35,4.36h0Zm24.93.79h-15.91c-.39-.03-.69-.34-.72-.72-.03-.43.29-.81.72-.84h15.91c.39.03.69.34.72.72.03.43-.29.81-.72.84Zm7.36-8.12c-12.02.02-14.4-1.55-14.4-1.55-8.55-4.5-13.38-2.57-13.38-2.57-1.59-.09-5.88,1.77-5.88,1.77-1.56,1.86-10.38,2.34-10.38,2.34h-5.52v-1.8l6.14-.24c4.41-.23,7.16-1.16,7.16-1.16,1.31-.75,7.2-2.8,7.2-2.8,7.16-1.44,12.74,1.48,12.74,1.48,3.56,2.51,10.44,2.48,10.44,2.48l5.9.14v1.91Z"/>
        <path class="cls-2" d="m53.62,92.71c-1.54,0-2.79,1.25-2.79,2.8s1.25,2.79,2.8,2.79,2.79-1.25,2.79-2.8c0-.74-.29-1.45-.82-1.97-.52-.52-1.24-.82-1.98-.82Z"/>
      </g>
      <path class="cls-1" d="m82.55,42.86c-.48-.51-11.86-12.47-11.86-19.17s5.64-12.53,12.58-12.53,12.58,5.62,12.58,12.53-11.37,18.66-11.86,19.17l-.72.76-.72-.76Z"/>
      <path class="cls-2" d="m83.28,12.16c-6.37,0-11.58,5.16-11.58,11.53s11.58,18.48,11.58,18.48c0,0,11.58-12.11,11.58-18.48s-5.21-11.53-11.58-11.53Z"/>
      <ellipse class="cls-1" cx="83.28" cy="22.58" rx="6.58" ry="6.53"/>
      <g id="a">
        <path class="cls-2" d="m86.96,20.6l-.68-.7-4.31,4.18-1.66-1.85-.72.65,2,2.23c.06.06.13.11.22.14.09.03.17.03.26,0,.09-.02.16-.06.23-.12l4.68-4.53Z"/>
      </g>
    </g>
  </g>
</svg>