<?xml version="1.0" encoding="UTF-8"?>
<svg id="Layer_2" data-name="Layer 2" xmlns="http://www.w3.org/2000/svg" viewBox="0 0 134 134">
  <defs>
    <style>
      .cls-1 {
        fill: #055d8c;
      }

      .cls-2 {
        fill: #fff;
      }

      .cls-3 {
        fill-rule: evenodd;
      }

      .cls-3, .cls-4 {
        fill: #073e5f;
      }
    </style>
  </defs>
  <g id="Layer_1-2" data-name="Layer 1">
    <g id="Group_53" data-name="Group 53">
      <g id="Rectangle_38" data-name="Rectangle 38">
        <g>
          <rect class="cls-4" width="134" height="134" rx="15" ry="15"/>
          <rect class="cls-2" x="1.68" y="1.68" width="130.63" height="130.63" rx="13.86" ry="13.86"/>
        </g>
      </g>
    </g>
    <path class="cls-3" d="m4.66,97.19h85.07l4.97-5.96H10.28s-5.63,5.96-5.63,5.96Zm92.69-9.1l25.32-30.45H42.23l-28.8,30.45h84.08-.17Z"/>
    <rect class="cls-2" x="80.89" y="44.34" width="5" height="17.52"/>
    <g>
      <rect class="cls-4" x="77.68" y="25.35" width="11.55" height=".93"/>
      <rect class="cls-4" x="79.54" y="26.29" width="7.82" height="13.6"/>
      <polygon class="cls-1" points="76.68 58.62 90.51 58.62 90.84 63.32 76.07 63.23 76.68 58.62"/>
      <rect class="cls-2" x="80.52" y="27.42" width="1.77" height="5.11"/>
      <rect class="cls-2" x="84.62" y="27.42" width="1.77" height="5.11"/>
      <rect class="cls-2" x="81.03" y="33.49" width="5" height="5"/>
      <rect class="cls-4" x="78.43" y="39.45" width="10.06" height="20.43"/>
    </g>
  </g>
</svg>