<?xml version="1.0" encoding="UTF-8"?>
<svg id="Layer_2" data-name="Layer 2" xmlns="http://www.w3.org/2000/svg" viewBox="0 0 134 134">
  <defs>
    <style>
      .cls-1 {
        fill: #fff;
      }

      .cls-2 {
        fill-rule: evenodd;
      }

      .cls-2, .cls-3 {
        fill: #073e5f;
      }
    </style>
  </defs>
  <g id="Layer_1-2" data-name="Layer 1">
    <g id="Group_53" data-name="Group 53">
      <g id="Rectangle_38" data-name="Rectangle 38">
        <g>
          <rect class="cls-3" width="134" height="134" rx="15" ry="15"/>
          <rect class="cls-1" x="1.68" y="1.68" width="130.63" height="130.63" rx="13.86" ry="13.86"/>
        </g>
      </g>
    </g>
    <path class="cls-2" d="m36.14,23.39h41.94c1.72,0,3.28.63,4.44,1.63h0c1.15,1,1.85,2.39,1.85,3.89v76.18c0,.57-.09,1.11-.28,1.61h2.7c-.02-.13-.02-.26-.02-.39v-25.11c0-1.02.48-1.94,1.22-2.61l.02.02c.76-.67,1.8-1.09,2.96-1.09h18.66c1.15,0,2.2.41,2.96,1.06v.02h.02c.74.67,1.22,1.59,1.22,2.59v25.11c0,.13,0,.26-.02.39h2.13c.63,0,1.17.48,1.17,1.04v1.76c0,.59-.54,1.04-1.17,1.04h-36.85c-.33.04-.65.07-.98.07h-41.94c-1.72,0-3.31-.61-4.44-1.61v-.02h-.02c-1.13-1-1.83-2.37-1.83-3.89V28.91c0-1.5.7-2.89,1.83-3.89h.02c1.13-1,2.72-1.63,4.44-1.63h0Zm69.92,60.92h-3.28c-.22,0-.44.11-.59.26-.15.17-.24.39-.24.63v2.87c0,.24.09.48.24.63h0c.15.15.37.26.59.26h3.28c.24,0,.43-.11.59-.26h0c.15-.15.26-.39.26-.63v-2.87c0-.24-.11-.46-.26-.63-.15-.15-.35-.26-.59-.26h0Zm-8.28,14.35h-3.3c-.22,0-.41.09-.57.24h0c-.15.17-.26.39-.26.65v2.85c0,.26.11.48.26.65h0c.15.15.35.24.57.24h3.3c.22,0,.43-.09.59-.24h0c.15-.17.24-.39.24-.65v-2.85c0-.26-.09-.48-.24-.65h0c-.15-.15-.37-.24-.59-.24h0Zm8.28,0h-3.28c-.22,0-.44.09-.59.24h0c-.15.17-.24.39-.24.65v2.85c0,.26.09.48.24.65h0c.15.15.37.24.59.24h3.28c.24,0,.43-.09.59-.24h0c.15-.17.26-.39.26-.65v-2.85c0-.26-.11-.48-.26-.65h0c-.15-.15-.35-.24-.59-.24h0Zm-8.28-7.17h-3.3c-.22,0-.41.11-.57.26-.15.15-.26.39-.26.63v2.87c0,.24.11.48.26.63.15.15.35.26.57.26h3.3c.22,0,.43-.11.59-.26.15-.15.24-.39.24-.63v-2.87c0-.24-.09-.48-.24-.63-.15-.15-.37-.26-.59-.26h0Zm8.28,0h-3.28c-.22,0-.44.11-.59.26s-.24.39-.24.63v2.87c0,.24.09.48.24.63s.37.26.59.26h3.28c.24,0,.43-.11.59-.26.15-.15.26-.39.26-.63v-2.87c0-.24-.11-.48-.26-.63-.15-.15-.35-.26-.59-.26h0Zm-8.28-7.18h-3.3c-.22,0-.41.11-.57.26-.15.17-.26.39-.26.63v2.87c0,.24.11.48.26.63h0c.15.15.35.26.57.26h3.3c.22,0,.43-.11.59-.26h0c.15-.15.24-.39.24-.63v-2.87c0-.24-.09-.46-.24-.63-.15-.15-.37-.26-.59-.26h0Zm-46.7-36.77h-7.96c-.61,0-1.17.22-1.59.57h0c-.39.37-.65.85-.65,1.39v5.83c0,.52.26,1.02.65,1.37h0c.41.37.98.59,1.59.59h7.96c.61,0,1.15-.22,1.57-.59h0c.41-.35.65-.85.65-1.37v-5.83c0-.54-.24-1.02-.65-1.39h0c-.41-.35-.96-.57-1.57-.57h0Zm0-14.61h-7.96c-.61,0-1.17.24-1.59.59h0c-.39.35-.65.85-.65,1.39v5.81c0,.54.26,1.04.65,1.39h0c.41.35.98.57,1.59.57h7.96c.61,0,1.15-.22,1.57-.57h0c.41-.35.65-.85.65-1.39v-5.81c0-.54-.24-1.04-.65-1.39h0c-.41-.35-.96-.59-1.57-.59h0Zm20.02,0h-7.96c-.61,0-1.17.24-1.57.59h0c-.41.35-.65.85-.65,1.39v5.81c0,.54.24,1.04.65,1.39h0c.39.35.96.57,1.57.57h7.96c.61,0,1.17-.22,1.57-.57h0c.41-.35.65-.85.65-1.39v-5.81c0-.54-.24-1.04-.65-1.39h0c-.39-.35-.96-.59-1.57-.59h0Zm-20.02,58.4h-7.96c-.61,0-1.17.22-1.59.57h0c-.39.37-.65.85-.65,1.39v5.83c0,.52.26,1.02.65,1.37h0c.41.37.98.59,1.59.59h7.96c.61,0,1.15-.22,1.57-.59h0c.41-.35.65-.85.65-1.37v-5.83c0-.54-.24-1.02-.65-1.39h0c-.41-.35-.96-.57-1.57-.57h0Zm20.02,0h-7.96c-.61,0-1.17.22-1.57.57h0c-.41.37-.65.85-.65,1.39v5.83c0,.52.24,1.02.65,1.37h0c.39.37.96.59,1.57.59h7.96c.61,0,1.17-.22,1.57-.59h0c.41-.35.65-.85.65-1.37v-5.83c0-.54-.24-1.02-.65-1.39h0c-.39-.35-.96-.57-1.57-.57h0Zm-20.02-14.61h-7.96c-.61,0-1.17.24-1.59.59h0c-.39.35-.65.85-.65,1.39v5.81c0,.54.26,1.04.65,1.39h0c.41.35.98.57,1.59.57h7.96c.61,0,1.15-.22,1.57-.57h0c.41-.35.65-.85.65-1.39v-5.81c0-.54-.24-1.04-.65-1.39h0c-.41-.35-.96-.59-1.57-.59h0Zm20.02,0h-7.96c-.61,0-1.17.24-1.57.59h0c-.41.35-.65.85-.65,1.39v5.81c0,.54.24,1.04.65,1.39h0c.39.35.96.57,1.57.57h7.96c.61,0,1.17-.22,1.57-.57h0c.41-.35.65-.85.65-1.39v-5.81c0-.54-.24-1.04-.65-1.39h0c-.39-.35-.96-.59-1.57-.59h0Zm-20.02-14.59h-7.96c-.61,0-1.17.22-1.59.59h0c-.39.35-.65.83-.65,1.37v5.83c0,.54.26,1.02.65,1.39h0c.41.35.98.57,1.59.57h7.96c.61,0,1.15-.22,1.57-.57h0c.41-.37.65-.85.65-1.39v-5.83c0-.54-.24-1.02-.65-1.37h0c-.41-.37-.96-.59-1.57-.59h0Zm20.02,0h-7.96c-.61,0-1.17.22-1.57.59h0c-.41.35-.65.83-.65,1.37v5.83c0,.54.24,1.02.65,1.39h0c.39.35.96.57,1.57.57h7.96c.61,0,1.17-.22,1.57-.57h0c.41-.37.65-.85.65-1.39v-5.83c0-.54-.24-1.02-.65-1.37h0c-.39-.37-.96-.59-1.57-.59h0Zm0-14.59h-7.96c-.61,0-1.17.22-1.57.57h0c-.41.37-.65.85-.65,1.39v5.83c0,.52.24,1.02.65,1.37h0c.39.37.96.59,1.57.59h7.96c.61,0,1.17-.22,1.57-.59h0c.41-.35.65-.85.65-1.37v-5.83c0-.54-.24-1.02-.65-1.39h0c-.39-.35-.96-.57-1.57-.57h0Z"/>
  </g>
</svg>