<?xml version="1.0" encoding="UTF-8"?>
<svg id="Layer_2" data-name="Layer 2" xmlns="http://www.w3.org/2000/svg" viewBox="0 0 134 134">
  <defs>
    <style>
      .cls-1 {
        fill: #fff;
      }

      .cls-2 {
        fill-rule: evenodd;
      }

      .cls-2, .cls-3 {
        fill: #073e5f;
      }
    </style>
  </defs>
  <g id="Layer_1-2" data-name="Layer 1">
    <g id="Group_53" data-name="Group 53">
      <g id="Rectangle_38" data-name="Rectangle 38">
        <g>
          <rect class="cls-3" width="134" height="134" rx="15" ry="15"/>
          <rect class="cls-1" x="1.68" y="1.68" width="130.63" height="130.63" rx="13.86" ry="13.86"/>
        </g>
      </g>
    </g>
    <g>
      <path class="cls-2" d="m35.26,57.34h61.38c.87,0,1.57.7,1.57,1.57v6.3c0,.87-.7,1.57-1.57,1.57h-61.38c-.87,0-1.57-.7-1.57-1.57v-6.3h0c0-.87.7-1.57,1.57-1.57h0Zm0,11.02h61.38c.87,0,1.57.7,1.57,1.57v39.35c0,.87-.7,1.57-1.57,1.57h-61.38c-.87,0-1.57-.7-1.57-1.57v-39.35c0-.87.7-1.57,1.57-1.57h0Zm3.15,44.07h55.09c.87,0,1.57.7,1.57,1.57v3.15c0,.87-.7,1.57-1.57,1.57h-55.09c-.87,0-1.57-.7-1.57-1.57v-3.15c0-.87.7-1.57,1.57-1.57Zm3.15-34.63v3.15h48.79v-3.15h-48.79Zm3.15-17.31v3.15h3.15v-3.15h-3.15Zm7.87,0v3.15h3.15v-3.15h-3.15Zm7.87,0v3.15h3.15v-3.15h-3.15Zm7.87,0v3.15h3.15v-3.15h-3.15Zm7.87,0v3.15h3.15v-3.15h-3.15Zm7.87,0v3.15h3.15v-3.15h-3.15Z"/>
      <path class="cls-2" d="m56.24,17.99h20.46c.87,0,1.57.7,1.57,1.57v7.87c0,.87-.7,1.57-1.57,1.57h-20.46c-.87,0-1.57-.7-1.57-1.57v-7.87h0c0-.87.7-1.57,1.57-1.57h0Zm-6.59,12.59h33.59c.35,0,.69.12.97.33l10.12,7.87h0c.69.53.81,1.52.28,2.21-.3.38-.76.61-1.24.61h-54.95c-.87,0-1.57-.7-1.57-1.57,0-.51.25-.99.67-1.29l11.24-7.87h0c.26-.19.58-.28.9-.28h0Z"/>
    </g>
  </g>
</svg>