<?xml version="1.0" encoding="UTF-8"?>
<svg id="Layer_2" data-name="Layer 2" xmlns="http://www.w3.org/2000/svg" viewBox="0 0 134 134">
  <defs>
    <style>
      .cls-1 {
        fill: #fff;
      }

      .cls-2 {
        fill: #073e5f;
      }
    </style>
  </defs>
  <g id="Layer_1-2" data-name="Layer 1">
    <g id="Group_53" data-name="Group 53">
      <g id="Rectangle_38" data-name="Rectangle 38">
        <g>
          <rect class="cls-2" width="134" height="134" rx="15" ry="15"/>
          <rect class="cls-1" x="1.68" y="1.68" width="130.63" height="130.63" rx="13.86" ry="13.86"/>
        </g>
      </g>
    </g>
    <g>
      <path class="cls-2" d="m66.32,76.1v-5.27c0-.41-.33-.74-.74-.74h-33.46c-.41,0-.74.33-.74.74v5.26c0,.1.02.21.06.3.04.09.09.17.16.23.14.14.32.22.53.22h33.46c.41,0,.74-.33.74-.74Z"/>
      <path class="cls-2" d="m67.68,70.83v5.27c0,.41.33.74.74.74h33.46c.42,0,.75-.33.75-.75v-5.26c0-.41-.33-.74-.74-.74h-33.47c-.41,0-.74.33-.74.74Z"/>
      <path class="cls-2" d="m68.66,68.74h33c.54,0,.98-.44.98-.98v-19.58c0-.54-.44-.98-.98-.98h-33c-.54,0-.98.44-.98.98v19.58c0,.54.44.98.98.98Z"/>
      <path class="cls-2" d="m32.35,68.74h32.99c.54,0,.98-.44.98-.98v-19.58c0-.54-.44-.98-.98-.98h-32.99c-.54,0-.98.44-.98.98v19.58c0,.54.44.98.98.98Z"/>
      <path class="cls-2" d="m103.89,76.71c-.04.13-.09.26-.16.38.07-.12.12-.25.16-.38Z"/>
      <path class="cls-2" d="m102.89,77.94c.36-.19.65-.49.84-.84-.2.35-.49.65-.84.84Z"/>
      <path class="cls-2" d="m102.88,77.94c-.12.06-.25.12-.38.16.13-.04.26-.09.38-.16Z"/>
      <path class="cls-2" d="m31.59,76.62c-.07-.07-.12-.15-.16-.23.04.09.09.17.16.23Z"/>
      <path class="cls-2" d="m31.5,78.1c-.13-.04-.26-.09-.38-.16.12.07.25.12.38.16Z"/>
      <path class="cls-2" d="m30.27,77.1c.19.36.49.65.84.84-.35-.2-.65-.49-.84-.84Z"/>
      <path class="cls-2" d="m30.27,77.09c-.06-.12-.12-.25-.16-.38.04.13.09.26.16.38Z"/>
      <path class="cls-2" d="m112.64,54.88h-7.9c-.42,0-.75.34-.75.75v20.47c0,.22-.03.43-.09.62-.04.13-.09.26-.16.38,0,0,0,0,0,0-.19.36-.49.65-.84.84,0,0,0,0,0,0-.12.07-.25.12-.38.16-.19.06-.41.09-.62.09H32.12c-.22,0-.43-.03-.62-.09-.13-.04-.26-.09-.38-.16,0,0,0,0,0,0-.36-.19-.65-.49-.84-.84,0,0,0,0,0,0-.07-.12-.12-.25-.16-.38-.06-.19-.09-.41-.09-.62v-20.47c0-.41-.34-.75-.75-.75h-7.9c-.41,0-.75.34-.75.75v30.55c0,.42.34.75.75.75h5.53v2.37h.8l1.2,9.15h3.59l1.21-9.15h.8v-2.37h65.02v2.37h.79l1.21,9.15h3.59l1.21-9.15h.79v-2.37h5.53c.42,0,.75-.34.75-.75v-30.55c0-.41-.33-.75-.75-.75Z"/>
    </g>
  </g>
</svg>