<?xml version="1.0" encoding="UTF-8"?>
<svg id="Layer_2" data-name="Layer 2" xmlns="http://www.w3.org/2000/svg" viewBox="0 0 134 134">
  <defs>
    <style>
      .cls-1 {
        fill: #fff;
      }

      .cls-2 {
        fill: #073e5f;
      }
    </style>
  </defs>
  <g id="Layer_1-2" data-name="Layer 1">
    <g id="Group_53" data-name="Group 53">
      <g id="Rectangle_38" data-name="Rectangle 38">
        <g>
          <rect class="cls-2" width="134" height="134" rx="15" ry="15"/>
          <rect class="cls-1" x="1.68" y="1.68" width="130.63" height="130.63" rx="13.86" ry="13.86"/>
        </g>
      </g>
    </g>
    <g>
      <path class="cls-2" d="m57.01,118.33h22.66c4.41-1.01,4.41-5.04,4.41-5.04h-31.98c-.13,4.41,4.91,5.04,4.91,5.04Z"/>
      <path class="cls-2" d="m81.55,37.25h-.93v-8.48l4.63-.16s3.33-2.44,0-4.23h-37.46s-3.49,2.52,0,4.06h4.31v8.83c-8.27.19-14.92,6.94-14.92,15.26v43.85c0,8.44,6.84,15.28,15.28,15.28h29.1c8.44,0,15.28-6.84,15.28-15.28v-43.85c0-8.44-6.84-15.28-15.28-15.28Zm-24.91,11.43c-6.51,1.87-6.17,8.38-6.17,8.38-5.73,4.21-2.98-5.33-2.98-5.33,5.2-8.94,11.92-6.65,11.92-6.65,2.49,4.43-2.77,3.6-2.77,3.6Zm12.9-18.76l-5.69-.08c-.72-.01-1.38.48-1.43,1.19l-.09,1.11c-.06.77.59,1.5,1.36,1.51h.92s-.12,3.6-.12,3.6h-8.57v-8.81l20.88.33v8.48h-8.2v-3.28h1.02c.73,0,1.33-.6,1.33-1.33v-1.29c0-.78-.62-1.41-1.4-1.42Zm11.93,70.25s-9.63,2.42-5.23-3.16c0,0,6.5.57,8.59-5.87,0,0-.65-5.29,3.7-2.64,0,0,2.05,6.8-7.06,11.68Z"/>
    </g>
  </g>
</svg>