<?xml version="1.0" encoding="UTF-8"?>
<svg id="Layer_2" data-name="Layer 2" xmlns="http://www.w3.org/2000/svg" viewBox="0 0 134 134">
  <defs>
    <style>
      .cls-1 {
        fill: #fff;
      }

      .cls-2, .cls-3 {
        fill: #073e5f;
      }

      .cls-3 {
        font-family: PatuaOne-Regular, 'Patua One';
        font-size: 12px;
      }
    </style>
  </defs>
  <g id="Layer_1-2" data-name="Layer 1">
    <g id="Group_53" data-name="Group 53">
      <g id="Rectangle_38" data-name="Rectangle 38">
        <g>
          <rect class="cls-2" width="134" height="134" rx="15" ry="15"/>
          <rect class="cls-1" x="1.68" y="1.68" width="130.63" height="130.63" rx="13.86" ry="13.86"/>
        </g>
      </g>
    </g>
    <g>
      <path class="cls-2" d="m103.52,68.25l-21.88-19.68c-2.26-2.06-5.05-3.47-8.05-4.06v-15.45c0-1.21-.64-2.34-1.69-2.96l-17.2-10.32c-1.73-.78-3.77-.01-4.55,1.72-.67,1.49-.21,3.24,1.11,4.2l15.45,9.32v13.49c-3,.59-5.79,2-8.05,4.06l-21.88,19.68c-1.55,1.39-2.09,3.58-1.38,5.54.73,2.04,2.65,3.41,4.82,3.44h59.86c2.17-.03,4.09-1.4,4.82-3.44.72-1.95.17-4.15-1.38-5.54Z"/>
      <path class="cls-2" d="m49.51,84.11c-1.9,0-3.44,1.54-3.44,3.44v27.52c0,1.9,1.54,3.44,3.44,3.44s3.44-1.54,3.44-3.44v-27.52c0-1.9-1.54-3.44-3.44-3.44Z"/>
      <path class="cls-2" d="m70.15,84.11c-1.9,0-3.44,1.54-3.44,3.44v27.52c0,1.9,1.54,3.44,3.44,3.44s3.44-1.54,3.44-3.44v-27.52c0-1.9-1.54-3.44-3.44-3.44Z"/>
      <path class="cls-2" d="m90.79,84.11c-1.9,0-3.44,1.54-3.44,3.44v27.52c0,1.9,1.54,3.44,3.44,3.44s3.44-1.54,3.44-3.44v-27.52c0-1.9-1.54-3.44-3.44-3.44Z"/>
    </g>
    <g>
      <circle class="cls-1" cx="70.15" cy="59.89" r="9.21"/>
      <text class="cls-3" transform="translate(67.24 64.02)"><tspan x="0" y="0">1</tspan></text>
    </g>
  </g>
</svg>