<?xml version="1.0" encoding="UTF-8"?>
<svg id="Layer_2" data-name="Layer 2" xmlns="http://www.w3.org/2000/svg" viewBox="0 0 134 134">
  <defs>
    <style>
      .cls-1 {
        fill: #fff;
      }

      .cls-2 {
        fill: #073e5f;
      }
    </style>
  </defs>
  <g id="Layer_1-2" data-name="Layer 1">
    <g id="Group_53" data-name="Group 53">
      <g id="Rectangle_38" data-name="Rectangle 38">
        <g>
          <rect class="cls-2" width="134" height="134" rx="15" ry="15"/>
          <rect class="cls-1" x="1.68" y="1.68" width="130.63" height="130.63" rx="13.86" ry="13.86"/>
        </g>
      </g>
    </g>
    <g>
      <path class="cls-2" d="m55.19,77.88h2.74v-6.86c-.76,0-1.37-.61-1.37-1.37s.61-1.37,1.37-1.37v-1.37h-2.74v10.97Z"/>
      <path class="cls-2" d="m92.21,105.3h-1.37V32.64c0-.76-.61-1.37-1.37-1.37h-46.62c-.76,0-1.37.61-1.37,1.37v72.67h-1.37c-.76,0-1.37.61-1.37,1.37s.61,1.37,1.37,1.37h52.1c.76,0,1.37-.61,1.37-1.37s-.61-1.37-1.37-1.37Zm-28.79-37.02c.76,0,1.37.61,1.37,1.37s-.61,1.37-1.37,1.37h-2.74v8.23c0,.76-.61,1.37-1.37,1.37h-5.48c-.76,0-1.37-.61-1.37-1.37v-13.71c0-.76.61-1.37,1.37-1.37h5.48c.76,0,1.37.61,1.37,1.37v2.74h2.74Zm0-24.68c0-.76.61-1.37,1.37-1.37h2.74c.76,0,1.37.61,1.37,1.37s-.61,1.37-1.37,1.37h-2.74c-.76,0-1.37-.61-1.37-1.37Zm19.19,61.7V39.49h-32.91v65.81h-2.74V38.12c0-.76.61-1.37,1.37-1.37h35.65c.76,0,1.37.61,1.37,1.37v67.18h-2.74Z"/>
    </g>
  </g>
</svg>