<?xml version="1.0" encoding="UTF-8"?>
<svg id="Layer_2" data-name="Layer 2" xmlns="http://www.w3.org/2000/svg" viewBox="0 0 134 134">
  <defs>
    <style>
      .cls-1 {
        fill: #fff;
      }

      .cls-2 {
        fill: #073e5f;
      }
    </style>
  </defs>
  <g id="Layer_1-2" data-name="Layer 1">
    <g id="Group_53" data-name="Group 53">
      <g id="Rectangle_38" data-name="Rectangle 38">
        <g>
          <rect class="cls-2" width="134" height="134" rx="15" ry="15"/>
          <rect class="cls-1" x="1.68" y="1.68" width="130.63" height="130.63" rx="13.86" ry="13.86"/>
        </g>
      </g>
    </g>
    <g>
      <path class="cls-2" d="m45.86,51.11h11.07,0s19.99,0,19.99,0h0s10.92,0,10.92,0v12.13h33.98l-29.94-24.26-9.92,8.04h0s-15.11-12.24-15.11-12.24l-15.03,12.18h0s-9.85-7.98-9.85-7.98l-29.93,24.26h33.83v-12.13Zm20.99-9.88c1.77,0,3.21,1.44,3.21,3.21s-1.44,3.21-3.21,3.21-3.21-1.44-3.21-3.21,1.44-3.21,3.21-3.21Z"/>
      <polygon class="cls-2" points="59.08 38.98 44.44 38.98 51.76 44.91 59.08 38.98"/>
      <polygon class="cls-2" points="89.28 38.98 74.64 38.98 81.96 44.91 89.28 38.98"/>
      <rect class="cls-2" x="12.03" y="95.4" width="109.95" height="3.82"/>
      <path class="cls-2" d="m12.03,93.97h33.83v-29.06H12.03v29.06Zm8.6-21.63h16.62v13.94h-16.62v-13.94Z"/>
      <path class="cls-2" d="m20.91,86.02h16.07v-13.4h-16.07v13.4Zm.91-4h4.46v3.14h-4.46v-3.14Zm8.94-4.48v3.55h-3.64v-3.55h3.64Zm-3.64-.92v-3.14h3.64v3.14h-3.64Zm3.64,5.4v3.14h-3.64v-3.14h3.64Zm-4.48-.92h-4.46v-3.55h4.46v3.55Zm9.78,4.06h-4.46v-3.14h4.46v-.92h-4.46v-3.55h4.46v-.92h-4.46v-3.14h4.46v11.68Zm-9.78-11.68v3.14h-4.46v-3.14h4.46Z"/>
      <path class="cls-2" d="m86.99,93.97h0s0,0,0,0v-42.03h-40.3v.84h0v10.45h0v1.68h0v29.06h7.35s0,0,0,0v-24.69h25.94v24.7h7.01Zm-7.01-29.06v1.52h-4.16v-3.2h4.16v1.68h0Zm-10.59-1.68v3.2h-4.76v-3.2h4.76Zm.84,0h4.76v3.2h-4.76v-3.2Zm-8.29,0h1.86v3.2h-4.76v-3.2h2.9Zm-3.74,0v3.2h-4.16v-3.2h4.16Z"/>
      <path class="cls-2" d="m96.79,86.02h16.07v-13.4h-16.07v13.4Zm9.85-8.48v3.55h-3.64v-3.55h3.64Zm-3.64-.92v-3.14h3.64v3.14h-3.64Zm3.64,5.4v3.14h-3.64v-3.14h3.64Zm5.3,3.14h-4.47v-3.14h4.46v-.92h-4.46v-3.55h4.46v-.92h-4.46v-3.14h4.47v11.68Zm-14.24-11.68h4.46v3.14h-4.46v.92h4.46v3.55h-4.46v.92h4.46v3.14h-4.46v-11.68Z"/>
      <path class="cls-2" d="m87.83,93.97h33.98v-29.06h-33.98v29.06Zm8.68-21.63h16.62v13.94h-16.62v-13.94Z"/>
      <rect class="cls-2" x="67.44" y="71.02" width="10.81" height="22.95"/>
      <rect class="cls-2" x="55.79" y="71.02" width="10.81" height="22.95"/>
    </g>
  </g>
</svg>