<?xml version="1.0" encoding="UTF-8"?>
<svg id="Layer_2" data-name="Layer 2" xmlns="http://www.w3.org/2000/svg" viewBox="0 0 134 134">
  <defs>
    <style>
      .cls-1 {
        fill: #fff;
      }

      .cls-2 {
        fill: #073e5f;
      }
    </style>
  </defs>
  <g id="Layer_1-2" data-name="Layer 1">
    <g id="Group_53" data-name="Group 53">
      <g id="Rectangle_38" data-name="Rectangle 38">
        <g>
          <rect class="cls-2" width="134" height="134" rx="15" ry="15"/>
          <rect class="cls-1" x="1.68" y="1.68" width="130.63" height="130.63" rx="13.86" ry="13.86"/>
        </g>
      </g>
    </g>
    <g id="C394_Building_buildings_house_shop_front_shops" data-name="C394, Building, buildings, house, shop front, shops">
      <g>
        <rect class="cls-2" x="66.94" y="42.63" width="6.62" height="6.55"/>
        <rect class="cls-2" x="84.37" y="107.24" width="17.43" height="15.16"/>
        <polygon class="cls-2" points="58.22 106.04 58.22 106.21 58.22 106.21 58.22 122.23 82.28 122.23 82.28 90.01 58.22 90.01 58.22 106.04"/>
        <rect class="cls-2" x="66.94" y="64.17" width="6.62" height="6.55"/>
        <rect class="cls-2" x="84.37" y="42.63" width="6.62" height="6.55"/>
        <rect class="cls-2" x="49.51" y="42.63" width="6.62" height="6.55"/>
        <rect class="cls-2" x="84.37" y="64.17" width="6.62" height="6.55"/>
        <path class="cls-2" d="m38.7,105h17.43v-16.2c0-.52.52-1.03,1.05-1.03h26.14c.52,0,1.05.52,1.05,1.03v16.2h17.43v-23.61h-63.1v23.61Z"/>
        <polygon class="cls-2" points="29.99 25.4 29.99 31.77 37.66 31.77 103.02 31.77 110.51 31.77 110.51 25.4 29.99 25.4"/>
        <path class="cls-2" d="m38.7,79.16h63.27v-45.14h-63.27v45.14Zm43.57-37.56c0-.52.52-1.03,1.05-1.03h8.72c.52,0,1.05.52,1.05,1.03v8.62c0,.52-.52,1.03-1.05,1.03h-8.72c-.52,0-1.05-.52-1.05-1.03v-8.62Zm0,21.54c0-.52.52-1.03,1.05-1.03h8.72c.52,0,1.05.52,1.05,1.03v8.62c0,.52-.52,1.03-1.05,1.03h-8.72c-.52,0-1.05-.52-1.05-1.03v-8.62Zm-17.43-21.54c0-.52.52-1.03,1.05-1.03h8.71c.52,0,1.05.52,1.05,1.03v8.62c0,.52-.52,1.03-1.05,1.03h-8.71c-.52,0-1.05-.52-1.05-1.03v-8.62Zm0,21.54c0-.52.52-1.03,1.05-1.03h8.71c.52,0,1.05.52,1.05,1.03v8.62c0,.52-.52,1.03-1.05,1.03h-8.71c-.52,0-1.05-.52-1.05-1.03v-8.62Zm-17.43-21.54c0-.52.52-1.03,1.05-1.03h8.72c.52,0,1.05.52,1.05,1.03v8.62c0,.52-.52,1.03-1.05,1.03h-8.72c-.52,0-1.05-.52-1.05-1.03v-8.62Zm0,21.54c0-.52.52-1.03,1.05-1.03h8.72c.52,0,1.05.52,1.05,1.03v8.62c0,.52-.52,1.03-1.05,1.03h-8.72c-.52,0-1.05-.52-1.05-1.03v-8.62Z"/>
        <rect class="cls-2" x="38.7" y="107.24" width="17.43" height="15.16"/>
        <rect class="cls-2" x="49.51" y="64.17" width="6.62" height="6.55"/>
      </g>
    </g>
  </g>
</svg>