<?xml version="1.0" encoding="UTF-8"?>
<svg id="Layer_2" data-name="Layer 2" xmlns="http://www.w3.org/2000/svg" viewBox="0 0 134 134">
  <defs>
    <style>
      .cls-1 {
        fill: #fff;
      }

      .cls-2 {
        fill: #073e5f;
      }
    </style>
  </defs>
  <g id="Layer_1-2" data-name="Layer 1">
    <g id="Group_53" data-name="Group 53">
      <g id="Rectangle_38" data-name="Rectangle 38">
        <g>
          <rect class="cls-2" width="134" height="134" rx="15" ry="15"/>
          <rect class="cls-1" x="1.68" y="1.68" width="130.63" height="130.63" rx="13.86" ry="13.86"/>
        </g>
      </g>
    </g>
    <g>
      <polygon class="cls-2" points="90.11 45.98 100.44 33.07 33.31 33.07 43.64 45.98 90.11 45.98"/>
      <polygon class="cls-2" points="41.06 47.27 30.73 34.36 30.73 104.07 41.06 93.74 41.06 47.27"/>
      <polygon class="cls-2" points="92.7 47.27 92.7 93.74 103.02 104.07 103.02 34.36 92.7 47.27"/>
      <circle class="cls-2" cx="59.13" cy="89.87" r="7.75"/>
      <polygon class="cls-2" points="55.26 56.56 51.78 58.88 58.74 58.88 55.26 56.56"/>
      <polygon class="cls-2" points="78.5 56.56 75.01 58.88 81.98 58.88 78.5 56.56"/>
      <path class="cls-2" d="m90.11,95.03v-46.47h-46.47v46.47l-10.33,10.33h67.13l-10.33-10.33Zm-20.08-35.93l7.17-4.78v-1.89c0-.71.58-1.29,1.29-1.29s1.29.58,1.29,1.29v1.89l7.17,4.78c.47.32.68.9.52,1.45s-.67.92-1.24.92h-15.49c-.57,0-1.07-.37-1.24-.92s.05-1.13.52-1.45Zm-23.24,0l7.17-4.78v-1.89c0-.71.58-1.29,1.29-1.29s1.29.58,1.29,1.29v1.89l7.17,4.78c.47.32.68.9.52,1.45s-.67.92-1.24.92h-15.49c-.57,0-1.07-.37-1.24-.92s.05-1.13.52-1.45Zm25.24,38.51c0,1.43-1.16,2.58-2.58,2.58h-20.66c-1.43,0-2.58-1.16-2.58-2.58v-18.07h25.82v18.07Zm0-20.66h-25.82v-2.58c0-1.43,1.16-2.58,2.58-2.58v2.58h10.33v-2.58h5.16v2.58h5.16v-2.58c1.43,0,2.58,1.16,2.58,2.58v2.58Zm14.2,15.49h-1.29v5.16c0,1.43-1.16,2.58-2.58,2.58h-2.58c-1.43,0-2.58-1.16-2.58-2.58v-5.16h-1.29c-.71,0-1.29-.58-1.29-1.29s.58-1.29,1.29-1.29h10.33c.71,0,1.29.58,1.29,1.29s-.58,1.29-1.29,1.29Z"/>
    </g>
  </g>
</svg>